<svg width="252" height="58" viewBox="0 0 252 58" fill="none" xmlns="http://www.w3.org/2000/svg">
<path d="M175.492 29.9062C176.326 30.1146 176.742 30.5443 176.742 31.1953L176.82 32.2109C176.82 32.3672 175.753 32.5755 173.617 32.8359L173.5 32.9922V33.1484C173.5 33.4349 173.773 34.724 174.32 37.0156V37.6406L174.203 39.3594C174.776 43.1094 175.062 47.4323 175.062 52.3281H175.141C177.38 52.3281 178.5 52.5755 178.5 53.0703C178.734 54.3984 178.852 55.2318 178.852 55.5703C178.852 56.0651 177.992 56.3125 176.273 56.3125H175.531L175.336 56.3516L175.141 56.3125H174.711C173.383 56.3125 172.719 56.1953 172.719 55.9609C172.484 54.7109 172.367 53.7995 172.367 53.2266V52.6406L172.523 51.7812V51.7031C172.367 51.0781 172.289 50.6484 172.289 50.4141V50.1406C172.159 47.5885 172.094 45.8177 172.094 44.8281H172.016L163.93 44.6328L163.773 44.8281L163.812 46.3906L163.773 50.8047V52.1328C163.773 52.7839 163.852 53.4479 164.008 54.125L163.773 54.8672C163.93 55.1797 164.008 55.4141 164.008 55.5703C164.008 56.3255 163.5 56.7031 162.484 56.7031C160.74 56.7031 159.633 56.5469 159.164 56.2344C158.201 55.974 157.719 55.5833 157.719 55.0625L158.031 53.3828C158.135 53.3047 158.318 53.2656 158.578 53.2656H159.594C160.219 53.2656 160.531 53.1875 160.531 53.0312L160.57 52.6406V50.7266C160.57 46.4818 160.479 43.2526 160.297 41.0391L160.336 39.3203C160.232 39.3203 160.102 37.3932 159.945 33.5391L159.633 33.4219H159.594C157.51 33.4219 156.469 33.3047 156.469 33.0703L156.078 32.1719C156.078 31.5469 157.12 31.2344 159.203 31.2344C160.401 31.1562 161.508 31.1172 162.523 31.1172L163.031 31.2344L162.836 31.7422L162.953 32.0156C162.771 32.1979 162.68 32.3802 162.68 32.5625V32.7969L163.344 40.8047C163.344 41.2474 163.448 41.4688 163.656 41.4688L171.82 41.7422L171.898 41.5859L171.742 39.5938C171.742 39.4375 171.82 39.2292 171.977 38.9688L171.82 38.7734V38.6953L171.898 38.5391V38.4609L171.742 37.3672V36.1172C171.534 34.6589 171.378 33.8516 171.273 33.6953C171.039 33.6953 170.766 32.901 170.453 31.3125C170.531 30.6875 170.596 30.375 170.648 30.375C172.68 30.2448 174.294 30.0885 175.492 29.9062ZM171.43 30.8828L171.352 30.9609V31.0391C171.378 31.1432 171.469 31.1953 171.625 31.1953H171.82C172.055 31.1953 172.185 31.1432 172.211 31.0391C172.185 30.9349 172.081 30.8828 171.898 30.8828H171.43ZM171.82 31.625L171.742 31.7422V31.8203L171.82 31.8984L171.977 31.8203V31.625H171.82ZM157.055 32.1719L156.977 32.0156L156.898 32.0938V32.1719H157.055ZM161.977 34.1641H161.898V34.2812L161.977 34.3984H162.133V34.2812L161.977 34.1641ZM161 34.4375H160.805L160.766 34.9062L160.805 35.1016H161V34.75V34.7109V34.4375ZM173.617 37.5234L173.5 37.6016V37.7188L173.617 37.7969L173.734 37.7188V37.6016L173.617 37.5234ZM173.578 38.4609L173.617 38.6172H173.734L173.773 38.5V38.1484L173.734 38.0703C173.63 38.0703 173.578 38.2005 173.578 38.4609ZM161.078 41.7031H161V41.8594C161 42.0417 161.052 42.1458 161.156 42.1719H161.195L161.312 42.0938C161.312 41.9115 161.234 41.7812 161.078 41.7031ZM163.617 42.25H163.539V42.3281L163.656 42.4453H163.773V42.4062L163.617 42.25ZM169.242 42.25H167.953V42.3281L169.008 42.4453H169.242L169.32 42.3281L169.242 42.25ZM161.156 42.4844L161.078 42.5625V42.6406H161.156L161.273 42.5234V42.4844H161.156ZM169.672 43.6172L169.711 43.6562H170.258L170.414 43.5391L170.375 43.4609H170.062C169.828 43.4609 169.698 43.513 169.672 43.6172ZM172.367 46L172.289 46.1172V46.2344L172.406 46.3516H172.484V46.1172L172.367 46ZM172.367 46.5859L172.289 46.6641V47.0938H172.367L172.484 47.0156V46.6641L172.367 46.5859ZM173.578 51.4297L173.383 51.2734V51.5469L173.461 51.625L173.578 51.5469V51.4297ZM163.031 51.3906H162.875V51.4297C162.901 51.612 162.953 51.7031 163.031 51.7031H163.148L163.031 51.3906ZM160.219 54.3594H160.062V54.4375H160.219V54.3594ZM163.266 54.9844L163.109 55.1797V55.2188L163.227 55.375H163.266L163.5 55.1797V55.1016L163.383 54.9844H163.266ZM177.953 55.4531L177.875 55.4922V55.6484H178.109V55.4922L177.992 55.4531H177.953ZM176.82 55.4922L176.664 55.6484L176.742 55.8047H176.938C177.12 55.8047 177.224 55.7526 177.25 55.6484L177.172 55.4922H176.82ZM182.641 36.625L185.297 37.5234C185.323 37.9141 185.479 38.3307 185.766 38.7734L185.844 39.2031C185.609 40.8698 185.544 44.3333 185.648 49.5938C185.648 50.349 185.961 50.8438 186.586 51.0781L186.859 51.7031C186.859 51.8594 187.719 52.0026 189.438 52.1328H189.594C190.141 52.1328 190.818 51.5469 191.625 50.375C192.25 49.75 192.667 49.2552 192.875 48.8906H193.07V48.6562L192.992 48.4609C193.148 48.2266 193.266 47.875 193.344 47.4062H193.383V47.0547L194.086 39.6328V38.9297L194.008 38.5391V38.5C194.294 38.2917 194.438 37.9661 194.438 37.5234C194.438 37.237 194.529 37.0807 194.711 37.0547L195.609 37.5234H196.469C197.51 37.5234 198.253 37.7448 198.695 38.1875V38.3438C198.409 38.3438 198.266 38.3958 198.266 38.5L198.656 39.3984H198.773C198.826 39.0078 198.878 38.8125 198.93 38.8125C199.034 38.9427 199.099 39.1641 199.125 39.4766L198.695 44.3203L198.773 44.3984V44.4375C198.591 44.9844 198.409 46.5599 198.227 49.1641V50.2969C198.227 51.9896 198.305 52.8359 198.461 52.8359H198.617C199.086 52.8359 199.841 52.7318 200.883 52.5234C200.987 52.5495 201.221 52.7057 201.586 52.9922C201.482 55.3359 201.326 56.5078 201.117 56.5078L200.688 56.1562L199.516 56.2344L195.18 56.1562C194.945 56.1562 194.711 55.6224 194.477 54.5547C194.32 54.4245 194.242 54.2682 194.242 54.0859L194.32 53.7344H194.203C193.995 53.7344 193.227 54.0859 191.898 54.7891C191.82 54.9714 190.909 55.349 189.164 55.9219C188.773 56.1302 188.253 56.3385 187.602 56.5469C187.211 56.3125 186.586 56.0781 185.727 55.8438C184.086 54.2292 183.083 52.8099 182.719 51.5859C182.042 50.6224 181.703 48.5651 181.703 45.4141L182.133 40.8438V40.7266C182.133 40.6745 181.247 40.5052 179.477 40.2188C179.32 39.9844 179.242 39.3333 179.242 38.2656C179.242 37.5625 179.359 37.2109 179.594 37.2109C179.594 36.9245 180.609 36.7292 182.641 36.625ZM181.977 37.0938L181.82 37.1719V37.25H182.094V37.1719L181.977 37.0938ZM182.953 37.4062L182.758 37.4844V37.5234C182.758 37.5495 182.953 37.6667 183.344 37.875C183.344 38.2135 183.37 38.3828 183.422 38.3828H183.656C184.281 38.3828 184.659 38.2786 184.789 38.0703V37.9922C184.789 37.8099 184.398 37.6667 183.617 37.5625C183.617 37.5104 183.461 37.4583 183.148 37.4062H182.953ZM180.297 38.5H179.789V38.6172L179.867 38.6562H179.984L180.297 38.6172V38.5ZM180.297 38.8906H179.984V38.9688C180.01 39.125 180.154 39.2031 180.414 39.2031L180.453 39.125V39.0469L180.297 38.8906ZM194.828 37.9531H194.75C194.75 38.2135 194.958 38.3438 195.375 38.3438H195.609L195.727 38.2656V38.2266C195.727 38.0964 195.427 38.0052 194.828 37.9531ZM181.312 39.3594C181.312 39.5156 181.729 39.737 182.562 40.0234H182.953C183.057 40.0234 183.109 39.9323 183.109 39.75C182.823 39.4635 182.471 39.2812 182.055 39.2031H181.742C181.482 39.2031 181.339 39.2552 181.312 39.3594ZM180.805 39.2422L180.609 39.3203V39.4375L180.648 39.4766V39.5156C180.883 39.4635 181 39.3984 181 39.3203V39.2422H180.805ZM184.242 39.6719V40.4141L184.359 40.4922C184.516 40.4141 184.594 40.2578 184.594 40.0234V39.5938C184.594 39.4375 184.555 39.3333 184.477 39.2812H184.398C184.294 39.3073 184.242 39.4375 184.242 39.6719ZM179.945 39.5156L179.789 39.6719L179.867 39.75H180.18L180.297 39.6719L180.141 39.5156H179.945ZM195.18 39.2031L195.062 39.3203V39.3984C195.062 39.5026 195.154 39.5547 195.336 39.5547H195.375C195.557 39.5547 195.661 39.5026 195.688 39.3984V39.3203C195.661 39.2422 195.531 39.2031 195.297 39.2031H195.18ZM182.523 41.4297V41.7422L183.109 41.5469V40.7266L183.031 40.6094C182.901 40.6094 182.732 40.8828 182.523 41.4297ZM195.727 43.5V43.6562H195.766C196.026 43.6562 196.156 43.3568 196.156 42.7578C196.13 42.4974 196.091 42.3672 196.039 42.3672C195.961 42.3672 195.857 42.7448 195.727 43.5ZM197.289 44.7109H197.172L197.094 44.8672C197.146 44.9974 197.198 45.0625 197.25 45.0625H197.289V44.7109ZM183.227 45.8047L183.109 45.7656L182.953 45.9219V46L183.109 46.0781L183.227 45.9609V45.8047ZM195.18 47.2109L195.375 47.4062C195.505 47.3542 195.583 47.0938 195.609 46.625L195.57 46.5469H195.492C195.284 46.7031 195.18 46.9245 195.18 47.2109ZM184.008 47.1328V47.4062C184.008 47.7448 184.177 48.0052 184.516 48.1875H184.633C184.633 47.224 184.555 46.7422 184.398 46.7422H184.242C184.086 46.8203 184.008 46.9505 184.008 47.1328ZM195.102 47.6406L194.984 47.7578V48.1094L195.102 48.2656C195.258 48.1875 195.375 48.0703 195.453 47.9141V47.7578L195.336 47.6406H195.102ZM182.68 48.0703L182.562 48.1875V48.3438C182.562 49.3594 183.109 50.9479 184.203 53.1094C184.411 53.2396 184.555 53.3047 184.633 53.3047V53.1094L183.5 49.9453C183.161 48.7474 182.901 48.1224 182.719 48.0703H182.68ZM196.039 49.1641L195.883 49.3203V49.3594L196.039 49.4766L196.156 49.3594L196.117 49.1641H196.039ZM191.742 51.0781L191.781 51.1562H191.82C192.445 50.3229 192.758 49.8411 192.758 49.7109V49.6328H192.641C192.432 49.8932 192.133 50.375 191.742 51.0781ZM184.75 49.7109V49.75C184.828 49.9062 184.932 49.9844 185.062 49.9844V49.9453C185.062 49.7891 184.958 49.7109 184.75 49.7109ZM195.961 49.7891H195.883V50.0234C195.883 50.4401 195.948 50.974 196.078 51.625H196.195C196.299 51.2344 196.352 50.8568 196.352 50.4922V50.2188C196.352 49.9323 196.221 49.7891 195.961 49.7891ZM193.852 50.1797L193.695 49.9844C193.539 50.1927 193.461 50.349 193.461 50.4531L193.656 50.5703H193.695L193.852 50.4531V50.1797ZM195.18 50.5703H195.102V50.8438H195.18L195.297 50.7266V50.6094L195.18 50.5703ZM185.883 51.7031H185.844V51.8203L185.922 51.9375H185.961V51.8203L185.883 51.7031ZM197.641 51.7422L197.25 52.3281V52.4453H197.641L197.797 52.3281V52.1328C197.797 51.8984 197.745 51.7682 197.641 51.7422ZM194.008 52.4062V52.4453H194.086L194.359 52.2109V52.0547C194.125 52.0547 194.008 52.1719 194.008 52.4062ZM195.18 52.3281L195.062 52.4453V52.9141C195.062 54.737 195.154 55.6484 195.336 55.6484H195.453C195.635 55.6224 195.727 55.5443 195.727 55.4141C195.518 55.0495 195.401 54.099 195.375 52.5625L195.18 52.3281ZM185.609 52.5234H185.492V52.6797C185.518 52.7839 185.609 52.8359 185.766 52.8359V52.6797L185.609 52.5234ZM186.586 52.7969H186.469V52.8359C186.469 53.1224 186.924 53.5391 187.836 54.0859C188.878 53.6693 189.398 53.4089 189.398 53.3047V53.2656C188.721 53.2656 187.784 53.1094 186.586 52.7969ZM188.461 54.2422V54.3203H188.93C189.945 54.0859 190.622 53.7344 190.961 53.2656V53.1094H190.766C190.609 53.1094 189.841 53.487 188.461 54.2422ZM199.984 53.4219L198.773 53.5781V53.7344L199.008 53.7734H199.164C199.737 53.7474 200.023 53.6562 200.023 53.5V53.4219H199.984ZM199.984 54.0859H199.828V54.3203H199.984L200.102 54.2422V54.1641C200.102 54.112 200.062 54.0859 199.984 54.0859ZM196.82 54.7109L196.703 54.7891V54.9062C196.755 55.0365 196.911 55.1016 197.172 55.1016H197.562L197.68 55.0234V54.9453C197.68 54.8151 197.51 54.737 197.172 54.7109H196.82ZM187.719 55.1016H187.406L185.844 54.9453H185.766L185.609 55.1016V55.1406C185.609 55.375 186.339 55.6354 187.797 55.9219C188.24 55.9219 189.112 55.5964 190.414 54.9453L190.453 54.9062V54.7891H190.18C189.398 54.9974 188.578 55.1016 187.719 55.1016ZM211.156 24.5938C211.729 24.5938 212.198 24.75 212.562 25.0625C212.25 25.8958 212.042 27.2109 211.938 29.0078L211.586 32.6016C211.586 32.7839 212.107 32.875 213.148 32.875C216.221 32.875 217.758 33.0182 217.758 33.3047C217.888 33.3047 218.044 33.3828 218.227 33.5391C217.966 33.8776 217.836 34.125 217.836 34.2812V34.3984L217.953 35.1797L217.445 36.8984C217.445 37.0807 217.641 37.3411 218.031 37.6797V37.7578C217.406 37.9661 216.898 38.0703 216.508 38.0703C216.091 38.0443 215.883 37.9792 215.883 37.875V37.7969L216.234 37.7578H216.508L216.664 37.6016V37.5234L216.508 37.4844L213.891 37.5234L211.742 37.4844C211.612 37.4844 211.469 38.2135 211.312 39.6719H211.273L210.727 39.0469L210.609 39.4766V39.7109C210.635 40.4401 210.727 40.8307 210.883 40.8828C210.987 40.8828 211.078 40.6484 211.156 40.1797V39.9062H211.273L211.312 40.0234L211.039 43.7734C211.352 49.1641 211.625 51.8594 211.859 51.8594C211.99 52.6927 212.315 53.1094 212.836 53.1094C213.122 53.2917 213.474 53.3828 213.891 53.3828H214.594L216.938 53.2656C216.99 53.2656 217.081 53.9557 217.211 55.3359C217.263 55.7526 217.172 56.0521 216.938 56.2344C216.729 56.4427 216.365 56.5469 215.844 56.5469L212.836 56.625C211.195 56.625 209.815 56.1693 208.695 55.2578C207.966 54.9974 207.602 54.2161 207.602 52.9141C207.549 52.2109 207.458 50.1276 207.328 46.6641L207.797 41.3516L207.914 39.0469V38.7344C207.732 37.6406 207.419 37.0938 206.977 37.0938H205.805H204.438C204.047 37.0938 203.656 37.1849 203.266 37.3672C203.005 37.3411 202.68 36.9896 202.289 36.3125L203.07 32.8359C203.07 32.7318 204.646 32.6667 207.797 32.6406C207.797 32.3021 207.979 31.8724 208.344 31.3516C208.448 27.2891 208.591 25.2578 208.773 25.2578V25.1406C208.773 25.0885 208.708 25.0625 208.578 25.0625V24.9453C208.578 24.8672 209.438 24.75 211.156 24.5938ZM209.672 25.6484H209.633V25.8828H209.75V25.7266L209.672 25.6484ZM211.352 25.7266L211.195 25.8828V25.9609L211.312 26.8594H211.391C211.703 26.5469 211.859 26.2734 211.859 26.0391V25.8828L211.742 25.7266H211.352ZM209.945 27.1719L209.828 27.0547C209.776 27.3151 209.75 27.6536 209.75 28.0703V28.2266H209.828L209.945 27.5625V27.1719ZM210.062 28.8125H209.984L209.828 32.6797V32.7188L209.945 32.8359H210.023C210.206 32.8359 210.297 32.5104 210.297 31.8594V30.9609L210.219 29.0469C210.167 28.8906 210.115 28.8125 210.062 28.8125ZM203.305 33.3047C203.305 33.487 203.422 33.5781 203.656 33.5781H204.242C205.31 33.5781 206.299 33.526 207.211 33.4219V33.3438C207.211 33.2135 206.573 33.1484 205.297 33.1484H203.656C203.422 33.1484 203.305 33.2005 203.305 33.3047ZM215.492 33.1484L214.984 33.3438H214.516H213.852V33.4609C214.424 33.6172 214.919 33.6953 215.336 33.6953H216.234C216.286 33.6953 216.312 33.6562 216.312 33.5781C216.26 33.2917 216.117 33.1484 215.883 33.1484H215.492ZM216.586 33.5391L216.469 33.6172V33.6953L216.586 33.7344C216.846 33.7344 216.99 33.6823 217.016 33.5781V33.5391H216.586ZM203.93 34.0469L203.852 34.125V34.3594C203.852 34.6198 204.724 34.75 206.469 34.75C207.354 34.75 207.797 34.6849 207.797 34.5547C207.797 34.2422 206.651 34.0729 204.359 34.0469H203.93ZM212.25 34.3984L212.133 34.5156V34.5547C212.133 34.6849 212.602 34.763 213.539 34.7891L214.203 34.75L215.102 34.9062H215.258C215.44 34.9062 215.531 34.8281 215.531 34.6719H215.492L212.523 34.3984H212.25ZM216.469 35.2578L216.312 35.4141V35.4531L216.469 35.5703H216.664C216.898 35.5703 217.042 35.4922 217.094 35.3359L216.977 35.2578H216.469ZM204.281 35.4141L204.125 35.5312C204.125 35.6354 204.19 35.6875 204.32 35.6875L205.297 35.7266L206.352 35.6875L206.391 35.6484V35.5703C206.078 35.4661 205.492 35.4141 204.633 35.4141H204.281ZM207.328 36.1562L204.125 36.0391V36.1172C204.125 36.2995 205.115 36.3906 207.094 36.3906L207.406 36.3125V36.2734L207.328 36.1562ZM212.914 36.2734H212.719V36.3906C212.745 36.4427 213.201 36.5729 214.086 36.7812H214.164V36.7031C213.747 36.4167 213.331 36.2734 212.914 36.2734ZM214.906 36.6641C215.609 36.8984 216.234 37.0156 216.781 37.0156L216.938 36.8594V36.625L216.82 36.5078H215.961C215.258 36.5078 214.906 36.5599 214.906 36.6641ZM209.477 38.0703V38.3828L209.594 38.5C209.698 38.474 209.75 38.3828 209.75 38.2266V38.0703L209.672 37.7969H209.633C209.529 37.8229 209.477 37.9141 209.477 38.0703ZM210.922 38.7734L210.727 38.6172V38.7344L210.883 38.8906H210.922V38.7734ZM209.672 38.8516H209.594L209.555 39.0469V39.2422L209.594 39.4766H209.75V39.125V38.9297L209.672 38.8516ZM209.75 41.5469H209.633V41.8594L209.75 42.0156H209.828V41.8594L209.75 41.5469ZM207.875 46.5078L207.992 47.6016L207.953 48.9688L207.992 49.3594H208.109C208.266 49.3594 208.344 48.7474 208.344 47.5234V46.625C208.344 45.4271 208.292 44.8281 208.188 44.8281C208.005 44.8281 207.901 45.388 207.875 46.5078ZM210.414 49.5938H210.336L210.297 49.8672V50.1797C210.297 50.362 210.349 50.4661 210.453 50.4922H210.531C210.635 50.4661 210.688 50.375 210.688 50.2188C210.661 49.8021 210.57 49.5938 210.414 49.5938ZM210.727 51.2734L210.57 51.7031C210.57 52.3021 210.701 52.6797 210.961 52.8359L211.039 52.6797V52.3281C211.013 51.6771 210.909 51.3255 210.727 51.2734ZM209.203 51.5469H209.086V52.1328L209.164 52.3672H209.203L209.281 52.2891V51.625L209.203 51.5469ZM210.336 54.0078V54.0469V54.2812C210.362 54.3854 210.453 54.4896 210.609 54.5938H210.883V54.5156C210.883 54.2292 210.701 54.0599 210.336 54.0078ZM214.672 54.7891H214.828C215.792 54.6328 216.273 54.4635 216.273 54.2812L216.195 54.2031C215.18 54.4635 214.672 54.6589 214.672 54.7891ZM209.359 54.2422H209.281V54.3984C209.359 55.0495 209.646 55.375 210.141 55.375H210.531L210.609 55.2578V55.2188C210.609 55.1667 210.375 55.0755 209.906 54.9453L209.359 54.2422Z" fill="black"/>
<path d="M29.75 27.77L28.288 27.566C28.2427 27.566 28.1633 27.6 28.05 27.668C27.9367 27.7133 27.88 27.7473 27.88 27.77L23.426 48C23.3807 48.2267 23.2673 48.4307 23.086 48.612C22.9047 48.7933 22.7007 48.884 22.474 48.884C22.2473 48.884 22.0547 48.8047 21.896 48.646C21.7373 48.51 21.658 48.3627 21.658 48.204C21.658 48.068 21.6807 47.932 21.726 47.796L18.156 36.814V36.678L17.918 36.61C17.8047 36.61 17.544 37.528 17.136 39.364L15.436 46.742C15.436 46.8327 15.504 46.8893 15.64 46.912C15.8213 46.9573 16.0027 47.014 16.184 47.082C16.6827 47.2633 16.932 47.524 16.932 47.864C16.932 48.2267 16.8867 48.4533 16.796 48.544C16.728 48.612 16.49 48.6347 16.082 48.612C15.6967 48.612 15.0507 48.5893 14.144 48.544C13.26 48.5213 12.308 48.476 11.288 48.408C10.2907 48.3627 9.33867 48.3173 8.432 48.272C7.548 48.2493 6.92467 48.2267 6.562 48.204C6.26733 48.0907 6.12 47.9093 6.12 47.66C6.12 47.388 6.188 47.184 6.324 47.048C6.48267 46.912 6.664 46.7987 6.868 46.708C7.14 46.5947 7.46867 46.538 7.854 46.538C7.922 46.538 7.99 46.538 8.058 46.538V45.688L3.196 28.586L2.958 28.382C2.55 29.2433 2.346 30.3087 2.346 31.578C2.346 31.9633 2.38 32.2807 2.448 32.53C2.53867 32.7793 2.584 33.0513 2.584 33.346C2.584 33.618 2.53867 33.788 2.448 33.856C2.35733 33.9013 2.13067 33.924 1.768 33.924C1.40533 33.924 1.122 33.788 0.918 33.516C0.736667 33.2213 0.646 32.768 0.646 32.156C0.646 31.544 0.657333 30.9887 0.68 30.49C0.68 30.014 0.725333 29.5267 0.816 29.028C1.04267 27.8493 1.48467 27.0787 2.142 26.716L2.72 26.444C3.74 25.9453 4.318 25.6847 4.454 25.662H9.112C9.27067 25.662 9.486 25.7413 9.758 25.9C10.03 26.036 10.166 26.1833 10.166 26.342C10.166 26.5007 10.132 26.614 10.064 26.682C9.996 26.75 9.91667 26.818 9.826 26.886C9.59933 27.0673 9.486 27.2487 9.486 27.43L9.52 27.77L14.144 43.988L14.348 44.192L15.198 42.118L16.898 33.04C16.8753 32.9493 16.864 32.8587 16.864 32.768V32.496C16.864 31.7027 16.9773 30.9207 17.204 30.15C17.4307 29.3793 17.544 28.586 17.544 27.77C17.408 27.6793 17.102 27.5887 16.626 27.498C16.1727 27.4073 15.776 27.362 15.436 27.362L15.3 27.056C15.2547 26.9427 15.2207 26.8407 15.198 26.75C15.198 26.6367 15.2547 26.5007 15.368 26.342C15.4813 26.1833 15.64 26.0927 15.844 26.07L19.006 25.866C19.7313 25.866 20.094 26.1607 20.094 26.75C20.094 27.362 19.8673 27.838 19.414 28.178C19.1647 29.0393 18.9607 29.81 18.802 30.49C18.6433 31.1473 18.564 31.8727 18.564 32.666V33.448L22.372 45.484L22.576 45.688L25.942 29.028V27.838L24.038 28.008C23.8567 28.008 23.698 27.9967 23.562 27.974C23.4487 27.9287 23.392 27.7927 23.392 27.566C23.392 26.4327 24.5593 25.866 26.894 25.866C29.2513 25.866 30.43 26.2627 30.43 27.056C30.43 27.532 30.2033 27.77 29.75 27.77ZM47.8199 49.122C45.5986 49.122 43.8873 47.762 42.6859 45.042C42.5046 45.926 41.6886 46.776 40.2379 47.592C38.9006 48.34 37.6766 48.714 36.5659 48.714C35.1379 48.714 33.8913 48.0793 32.8259 46.81C31.8966 45.6993 31.4319 44.4753 31.4319 43.138V37.46C31.4319 37.188 31.3639 36.9727 31.2279 36.814C31.0919 36.6327 30.9446 36.4627 30.7859 36.304C30.6273 36.1227 30.4799 35.9413 30.3439 35.76C30.2079 35.556 30.1399 35.2953 30.1399 34.978C30.1399 34.3207 31.2506 33.992 33.4719 33.992H34.7979C35.6366 33.992 36.2146 34.0147 36.5319 34.06L37.7899 34.502C37.7899 35.318 37.7219 36.4967 37.5859 38.038C37.3139 40.9847 37.1666 42.8547 37.1439 43.648V44.022C37.1666 44.6793 37.2233 45.11 37.3139 45.314C37.5406 45.7447 37.9259 45.96 38.4699 45.96C38.8553 45.96 39.2066 45.8467 39.5239 45.62L40.3739 45.042C40.4193 44.974 40.5893 44.736 40.8839 44.328C41.4506 43.6253 41.7339 43.2287 41.7339 43.138V34.502C41.7339 33.7993 42.9806 33.4253 45.4739 33.38H47.2079C47.6839 33.38 48.0013 33.4367 48.1599 33.55C48.3413 33.6407 48.4319 33.8107 48.4319 34.06C48.4319 34.2867 48.4206 34.4453 48.3979 34.536C48.3753 34.604 48.3073 34.6607 48.1939 34.706C48.1259 35.2047 48.0353 35.6693 47.9219 36.1L47.6499 37.324C47.4459 38.2307 47.3439 39.126 47.3439 40.01C47.3439 43.5233 48.0013 45.722 49.3159 46.606C49.7693 46.9007 50.1546 47.1047 50.4719 47.218C50.8119 47.3313 50.9819 47.3993 50.9819 47.422C50.9819 47.762 50.5966 48.136 49.8259 48.544C48.8059 48.9293 48.1599 49.122 47.8879 49.122C47.8879 49.122 47.8766 49.122 47.8539 49.122H47.8199ZM65.3908 35.658C64.4388 35.658 63.9628 35.42 63.9628 34.944C63.9628 34.9213 64.0081 34.8193 64.0988 34.638C64.1894 34.434 64.2801 34.3207 64.3708 34.298L70.9668 33.89C70.9668 33.89 70.9781 33.89 71.0008 33.89C71.0688 33.89 71.2161 33.992 71.4428 34.196L71.8168 34.536C71.8168 35.0347 71.1821 35.3067 69.9128 35.352C69.5954 35.352 69.3121 35.3633 69.0628 35.386C68.7681 37.4033 68.2921 39.3413 67.6348 41.2L66.0368 45.824C65.6061 47.048 65.2321 48.0227 64.9148 48.748C64.6201 49.4733 64.2801 50.21 63.8948 50.958C63.5094 51.7287 63.0901 52.488 62.6368 53.236C62.1834 53.984 61.7301 54.6527 61.2768 55.242C60.2341 56.5567 59.3161 57.214 58.5228 57.214C58.5001 57.214 58.4888 57.214 58.4888 57.214C57.0608 57.214 55.4968 56.228 53.7968 54.256C52.8901 53.2133 52.2781 52.3747 51.9608 51.74C51.6434 51.1053 51.4848 50.686 51.4848 50.482C51.4848 50.278 51.5528 50.108 51.6888 49.972C51.8248 49.8587 51.9948 49.768 52.1988 49.7C52.4708 49.6093 52.8561 49.564 53.3548 49.564C53.8534 49.564 54.2501 49.5867 54.5448 49.632C54.8394 49.6773 55.1114 49.8133 55.3608 50.04C55.9274 50.584 56.2108 51.706 56.2108 53.406C56.6868 54.018 57.0268 54.426 57.2308 54.63C57.6841 55.038 58.1488 55.242 58.6248 55.242C59.1461 55.2193 59.8148 54.528 60.6308 53.168C61.4241 51.808 61.8208 50.6973 61.8208 49.836C61.8208 48.9973 61.6848 48.272 61.4128 47.66C61.1634 47.0253 60.8348 46.402 60.4268 45.79C60.0414 45.178 59.6108 44.566 59.1348 43.954C58.6814 43.3193 58.1714 42.5487 57.6048 41.642C57.0608 40.7127 56.3921 39.806 55.5988 38.922C54.8281 38.038 53.8534 37.3467 52.6748 36.848C52.5161 36.78 52.3234 36.7233 52.0968 36.678C51.8474 36.6553 51.6094 36.5987 51.3828 36.508C50.8161 36.304 50.5328 36.0093 50.5328 35.624C50.5328 35.216 50.6914 34.9213 51.0088 34.74C51.3261 34.536 51.7341 34.3887 52.2328 34.298C52.7314 34.1847 53.2868 34.1053 53.8988 34.06C54.5108 34.0147 54.9641 33.9807 55.2588 33.958C55.5534 33.9127 55.7574 33.89 55.8708 33.89C55.9841 33.89 56.1201 33.9013 56.2788 33.924C56.4601 33.9467 56.6414 33.9693 56.8228 33.992C57.0268 34.0147 57.2534 34.0827 57.5028 34.196C57.7521 34.2867 58.0808 34.536 58.4888 34.944L59.6448 36.372C60.3701 37.324 61.0274 38.2647 61.6168 39.194L63.7248 42.628C64.0421 43.036 64.4048 43.6593 64.8128 44.498H65.0168C65.1074 44.294 65.3681 43.4893 65.7988 42.084C66.2294 40.6787 66.7508 38.65 67.3628 35.998L67.3288 35.488L65.3908 35.658ZM82.3451 37.392C82.3451 35.6013 81.5517 34.706 79.9651 34.706C79.2851 34.706 78.8091 34.9667 78.5371 35.488C78.4011 35.7827 78.3217 36.1113 78.2991 36.474C78.2991 36.814 78.3444 37.0293 78.4351 37.12C78.5484 37.2107 78.6051 37.3693 78.6051 37.596C78.6051 38.004 78.3671 38.276 77.8911 38.412C77.5964 38.5027 77.1657 38.548 76.5991 38.548C76.1911 38.548 75.6811 38.65 75.0691 38.854C74.4571 39.058 74.1057 39.16 74.0151 39.16C73.8111 39.16 73.6524 39.0353 73.5391 38.786C73.4484 38.5367 73.4031 38.2987 73.4031 38.072C73.4031 37.664 73.6637 37.0293 74.1851 36.168C74.7291 35.284 75.1937 34.6947 75.5791 34.4C76.2817 33.8787 76.9277 33.4593 77.5171 33.142C78.1064 32.802 78.7184 32.632 79.3531 32.632C82.6171 32.632 84.7251 33.5047 85.6771 35.25C86.2211 36.2473 86.4931 37.4487 86.4931 38.854C86.4931 39.466 86.4137 40.0893 86.2551 40.724C86.0964 41.3587 86.0171 41.9707 86.0171 42.56C86.0171 43.512 86.2097 44.396 86.5951 45.212C87.0937 45.9147 87.5244 46.3227 87.8871 46.436C88.0231 46.436 88.1477 46.3907 88.2611 46.3C88.3971 46.2093 88.5217 46.164 88.6351 46.164C89.1111 46.164 89.3491 46.402 89.3491 46.878C89.3491 47.3313 89.1451 47.728 88.7371 48.068C87.9211 48.748 87.1391 49.088 86.3911 49.088C85.6431 49.088 85.1104 49.0427 84.7931 48.952C84.4757 48.8613 84.1924 48.7367 83.9431 48.578C83.6937 48.4193 83.4784 48.2493 83.2971 48.068L82.7531 47.558L82.2431 47.048C82.1071 46.8893 82.0277 46.81 82.0051 46.81C80.4637 48.6687 78.5144 49.598 76.1571 49.598C74.8197 49.598 73.7204 49.1333 72.8591 48.204C72.0204 47.2747 71.6011 46.402 71.6011 45.586C71.6011 44.0447 72.3717 42.798 73.9131 41.846C75.4997 40.894 77.9024 40.1913 81.1211 39.738C81.4384 39.7153 81.6877 39.636 81.8691 39.5C82.1864 39.2733 82.3451 38.5707 82.3451 37.392ZM77.6191 42.798C77.3697 43.206 77.2451 43.5913 77.2451 43.954C77.2451 44.8153 77.3244 45.6087 77.4831 46.334C77.6417 47.0593 77.9137 47.4447 78.2991 47.49C78.8657 47.49 79.3531 47.3313 79.7611 47.014C80.4864 46.4473 80.8717 45.8807 80.9171 45.314L81.3251 41.064C79.5571 41.064 78.3217 41.642 77.6191 42.798ZM91.0172 48.68C90.3825 48.5893 90.0652 48.1927 90.0652 47.49C90.1105 47.1727 90.2012 46.98 90.3372 46.912C90.4732 46.844 90.6545 46.81 90.8812 46.81L91.1532 46.844C91.7879 46.844 92.1959 46.572 92.3772 46.028C92.5132 45.688 92.5812 45.0987 92.5812 44.26C92.5812 44.192 92.5699 44.124 92.5472 44.056C92.5472 43.988 92.5472 43.92 92.5472 43.852C92.5472 42.9453 92.6265 41.9253 92.7852 40.792C92.9439 39.6133 93.0232 38.5367 93.0232 37.562C93.0232 36.5647 92.9892 35.692 92.9212 34.944L91.3572 35.012H91.0172C90.8132 34.9667 90.5865 34.8987 90.3372 34.808C90.0879 34.7173 89.9632 34.5813 89.9632 34.4C89.9632 34.2187 90.0312 34.0487 90.1672 33.89C90.3259 33.7313 90.4279 33.6067 90.4732 33.516C90.6092 33.5387 90.7339 33.55 90.8472 33.55H91.5952C91.9805 33.55 92.3092 33.5387 92.5812 33.516C92.8532 33.4933 93.0572 33.482 93.1932 33.482C93.3519 33.4593 93.4992 33.4367 93.6352 33.414C93.7939 33.3913 94.0999 33.38 94.5532 33.38C95.2105 33.38 96.0945 33.1307 97.2052 32.632C97.4772 32.6773 97.7039 32.768 97.8852 32.904C98.0892 33.0173 98.2365 33.0967 98.3272 33.142L98.1572 34.808C98.2025 34.8533 98.2705 34.876 98.3612 34.876C98.5425 34.876 98.8825 34.6947 99.3812 34.332C100.447 33.856 101.297 33.5047 101.931 33.278C102.566 33.0287 103.065 32.904 103.427 32.904C103.79 32.904 104.141 32.9607 104.481 33.074C104.844 33.1873 105.207 33.3573 105.569 33.584C106.408 34.0827 106.986 34.6947 107.303 35.42C107.825 36.712 108.085 37.7887 108.085 38.65C108.085 39.0127 108.04 39.4887 107.949 40.078C107.768 41.1887 107.666 42.016 107.643 42.56C107.643 43.3987 107.7 43.9993 107.813 44.362C107.904 44.7247 107.995 45.042 108.085 45.314C108.289 46.0167 108.459 46.3907 108.595 46.436C108.709 46.5493 108.856 46.6287 109.037 46.674C109.219 46.6967 109.4 46.7307 109.581 46.776C109.989 46.8893 110.193 47.1047 110.193 47.422C110.193 47.7393 109.649 47.9887 108.561 48.17C107.927 48.2833 107.36 48.34 106.861 48.34C105.841 48.34 105.048 48.136 104.481 47.728C102.872 46.5493 102.067 44.1467 102.067 40.52C102.067 37.4827 101.478 35.964 100.299 35.964C99.6872 35.964 99.1319 36.2587 98.6332 36.848C98.1572 37.4147 97.8965 37.9587 97.8512 38.48L97.1712 45.212C97.1712 46.0053 97.3979 46.5607 97.8512 46.878C98.3045 47.1727 98.9052 47.354 99.6532 47.422C99.8119 47.4447 99.8912 47.558 99.8912 47.762C99.8912 48.1927 99.4832 48.408 98.6672 48.408C98.3725 48.408 98.0212 48.3513 97.6132 48.238C96.7972 48.0113 96.0265 47.898 95.3012 47.898C94.5985 47.898 93.1705 48.1587 91.0172 48.68ZM111.555 26.954L111.011 25.322C111.011 24.5513 111.498 23.9847 112.473 23.622C112.722 23.5313 112.972 23.486 113.221 23.486C113.969 23.486 114.524 23.724 114.887 24.2C115.272 24.6533 115.465 25.2653 115.465 26.036C115.465 26.6253 115.363 27.0447 115.159 27.294C114.955 27.5433 114.672 27.8493 114.309 28.212C113.946 28.5747 113.561 28.9147 113.153 29.232C112.133 30.048 111.328 30.456 110.739 30.456C110.15 30.456 109.855 30.3427 109.855 30.116C109.855 29.8893 109.946 29.708 110.127 29.572C110.286 29.4133 110.478 29.2433 110.705 29.062C111.294 28.586 111.589 28.0193 111.589 27.362L111.555 26.954ZM123.508 34.502C121.627 34.502 120.686 34.7853 120.686 35.352C120.686 36.0547 120.901 36.678 121.332 37.222C121.763 37.766 122.295 38.2873 122.93 38.786C123.565 39.262 124.256 39.7267 125.004 40.18C125.775 40.6333 126.477 41.1093 127.112 41.608C128.608 42.7867 129.356 44.022 129.356 45.314C129.356 46.9007 128.472 47.9887 126.704 48.578C125.616 48.9407 124.256 49.122 122.624 49.122C121.015 49.122 119.677 48.9973 118.612 48.748C117.569 48.4987 116.719 48.3287 116.062 48.238C115.427 48.17 115.042 48.0453 114.906 47.864C114.793 47.6827 114.736 47.4673 114.736 47.218C114.736 46.946 114.793 46.708 114.906 46.504C115.019 46.2773 115.155 46.062 115.314 45.858C115.767 45.2687 116.039 44.8493 116.13 44.6C116.221 44.328 116.289 44.0787 116.334 43.852C116.379 43.6707 116.447 43.4893 116.538 43.308C116.719 42.9 117.003 42.696 117.388 42.696C117.796 42.696 118.136 42.9567 118.408 43.478C118.703 43.9993 119.031 44.5773 119.394 45.212C119.779 45.824 120.233 46.3907 120.754 46.912C121.298 47.4333 122.012 47.694 122.896 47.694C124.415 47.694 125.174 47.2747 125.174 46.436C125.174 45.7333 124.381 44.7813 122.794 43.58C122.114 43.0587 121.366 42.5147 120.55 41.948C119.734 41.3813 118.986 40.8147 118.306 40.248C116.697 38.9333 115.892 37.8 115.892 36.848C115.892 35.964 116.119 35.284 116.572 34.808C117.048 34.3093 117.626 33.924 118.306 33.652C119.235 33.2667 120.663 32.9947 122.59 32.836L124.29 32.802L126.874 32.768C127.871 32.768 128.472 32.836 128.676 32.972C128.971 33.1987 129.118 33.6293 129.118 34.264C129.118 34.8987 129.107 35.454 129.084 35.93C129.084 36.406 129.061 36.8253 129.016 37.188C128.925 37.936 128.699 38.31 128.336 38.31C127.837 38.31 127.395 38.1173 127.01 37.732C126.625 37.324 126.251 36.882 125.888 36.406C125.548 35.93 125.185 35.4993 124.8 35.114C124.437 34.706 124.007 34.502 123.508 34.502Z" fill="black"/>
<path d="M127.716 21.102C127.716 14.3593 127.673 10.3293 127.586 9.012C127.43 6.62 127.352 5.22467 127.352 4.826C127.352 4.42733 127.465 4.10667 127.69 3.864C127.933 3.62133 128.219 3.5 128.548 3.5C128.877 3.5 129.146 3.62133 129.354 3.864C129.562 4.10667 129.666 4.41 129.666 4.774C129.666 5.866 129.623 7.348 129.536 9.22C129.363 13.6227 129.276 16.8987 129.276 19.048C129.276 19.568 129.441 20.0707 129.77 20.556C130.117 21.024 130.29 21.4487 130.29 21.83C130.29 22.2113 130.16 22.532 129.9 22.792C129.64 23.0347 129.345 23.156 129.016 23.156C128.149 23.156 127.716 22.4713 127.716 21.102ZM133.562 21.102C133.562 18.918 133.519 17.0027 133.432 15.356C133.345 13.7093 133.302 12.7387 133.302 12.444C133.302 12.1493 133.415 11.8633 133.64 11.586C133.883 11.2913 134.169 11.144 134.498 11.144C134.827 11.144 135.096 11.2827 135.304 11.56C135.512 11.82 135.616 12.21 135.616 12.73C135.616 13.2327 135.555 14.0907 135.434 15.304C135.313 16.5 135.252 17.748 135.252 19.048C135.252 19.568 135.356 20.0707 135.564 20.556C135.789 21.024 135.902 21.4573 135.902 21.856C135.902 22.2373 135.789 22.5493 135.564 22.792C135.356 23.0347 135.061 23.156 134.68 23.156C134.316 23.156 134.039 22.948 133.848 22.532C133.657 22.116 133.562 21.6393 133.562 21.102ZM134.394 8.206C134.013 8.206 133.709 8.102 133.484 7.894C133.259 7.686 133.146 7.38267 133.146 6.984C133.146 6.58533 133.285 6.24733 133.562 5.97C133.839 5.67533 134.169 5.528 134.55 5.528C134.931 5.528 135.235 5.64067 135.46 5.866C135.703 6.074 135.824 6.37733 135.824 6.776C135.824 7.17467 135.677 7.51267 135.382 7.79C135.105 8.06733 134.775 8.206 134.394 8.206ZM145.085 13.068C144.999 13.068 143.915 12.9987 141.835 12.86C141.835 13.0853 141.801 13.9433 141.731 15.434C141.662 16.9247 141.627 18.034 141.627 18.762C141.627 19.4727 141.783 20.0707 142.095 20.556C142.425 21.024 142.589 21.4487 142.589 21.83C142.589 22.2113 142.459 22.532 142.199 22.792C141.939 23.0347 141.645 23.156 141.315 23.156C140.449 23.156 140.015 22.4713 140.015 21.102L139.911 15.824C139.911 14.7493 139.885 13.7873 139.833 12.938H139.209C138.967 12.938 138.767 12.8687 138.611 12.73C138.455 12.574 138.377 12.366 138.377 12.106C138.377 11.846 138.455 11.6467 138.611 11.508C138.767 11.352 138.967 11.274 139.209 11.274H139.755C139.721 10.3727 139.703 9.688 139.703 9.22C139.703 8.73467 139.816 8.35333 140.041 8.076C140.284 7.78133 140.57 7.634 140.899 7.634C141.229 7.634 141.497 7.77267 141.705 8.05C141.913 8.31 142.017 8.74333 142.017 9.35C142.017 9.95667 141.991 10.624 141.939 11.352L145.085 11.144C145.761 11.144 146.099 11.4647 146.099 12.106C146.099 12.7473 145.761 13.068 145.085 13.068ZM153.845 13.068C153.759 13.068 152.675 12.9987 150.595 12.86C150.595 13.0853 150.561 13.9433 150.491 15.434C150.422 16.9247 150.387 18.034 150.387 18.762C150.387 19.4727 150.543 20.0707 150.855 20.556C151.185 21.024 151.349 21.4487 151.349 21.83C151.349 22.2113 151.219 22.532 150.959 22.792C150.699 23.0347 150.405 23.156 150.075 23.156C149.209 23.156 148.775 22.4713 148.775 21.102L148.671 15.824C148.671 14.7493 148.645 13.7873 148.593 12.938H147.969C147.727 12.938 147.527 12.8687 147.371 12.73C147.215 12.574 147.137 12.366 147.137 12.106C147.137 11.846 147.215 11.6467 147.371 11.508C147.527 11.352 147.727 11.274 147.969 11.274H148.515C148.481 10.3727 148.463 9.688 148.463 9.22C148.463 8.73467 148.576 8.35333 148.801 8.076C149.044 7.78133 149.33 7.634 149.659 7.634C149.989 7.634 150.257 7.77267 150.465 8.05C150.673 8.31 150.777 8.74333 150.777 9.35C150.777 9.95667 150.751 10.624 150.699 11.352L153.845 11.144C154.521 11.144 154.859 11.4647 154.859 12.106C154.859 12.7473 154.521 13.068 153.845 13.068ZM157.093 21.102C157.093 14.3593 157.05 10.3293 156.963 9.012C156.807 6.62 156.729 5.22467 156.729 4.826C156.729 4.42733 156.842 4.10667 157.067 3.864C157.31 3.62133 157.596 3.5 157.925 3.5C158.254 3.5 158.523 3.62133 158.731 3.864C158.939 4.10667 159.043 4.41 159.043 4.774C159.043 5.866 159 7.348 158.913 9.22C158.74 13.6227 158.653 16.8987 158.653 19.048C158.653 19.568 158.818 20.0707 159.147 20.556C159.494 21.024 159.667 21.4487 159.667 21.83C159.667 22.2113 159.537 22.532 159.277 22.792C159.017 23.0347 158.722 23.156 158.393 23.156C157.526 23.156 157.093 22.4713 157.093 21.102ZM167.151 17.826L164.057 17.566C163.762 17.566 163.528 17.592 163.355 17.644C163.459 18.632 163.875 19.4553 164.603 20.114C165.348 20.7727 166.224 21.102 167.229 21.102C168.2 21.102 169.075 20.7467 169.855 20.036C170.132 19.7933 170.34 19.672 170.479 19.672C170.618 19.672 170.739 19.724 170.843 19.828C170.947 19.932 170.999 20.0447 170.999 20.166C170.999 20.6687 170.505 21.2927 169.517 22.038C168.546 22.7833 167.437 23.156 166.189 23.156C164.958 23.156 163.884 22.6533 162.965 21.648C162.064 20.6427 161.613 19.3947 161.613 17.904C161.613 15.9973 162.332 14.394 163.771 13.094C165.21 11.794 166.796 11.144 168.529 11.144C169.257 11.144 169.846 11.274 170.297 11.534C170.765 11.7767 170.999 12.0973 170.999 12.496C170.999 12.8773 170.878 13.1893 170.635 13.432C170.41 13.6747 170.184 13.796 169.959 13.796C169.734 13.796 169.344 13.692 168.789 13.484C168.252 13.276 167.732 13.172 167.229 13.172C166.293 13.172 165.478 13.458 164.785 14.03C164.109 14.5847 163.658 15.278 163.433 16.11L167.021 15.902C167.818 15.902 168.217 16.214 168.217 16.838C168.217 17.4967 167.862 17.826 167.151 17.826Z" fill="black"/>
</svg>
