<svg width="392" height="117" viewBox="0 0 392 117" fill="none" xmlns="http://www.w3.org/2000/svg">
<path d="M315.743 29.9062C316.577 30.1146 316.993 30.5443 316.993 31.1953L317.071 32.2109C317.071 32.3672 316.004 32.5755 313.868 32.8359L313.751 32.9922V33.1484C313.751 33.4349 314.024 34.724 314.571 37.0156V37.6406L314.454 39.3594C315.027 43.1094 315.313 47.4323 315.313 52.3281H315.392C317.631 52.3281 318.751 52.5755 318.751 53.0703C318.985 54.3984 319.103 55.2318 319.103 55.5703C319.103 56.0651 318.243 56.3125 316.524 56.3125H315.782L315.587 56.3516L315.392 56.3125H314.962C313.634 56.3125 312.97 56.1953 312.97 55.9609C312.735 54.7109 312.618 53.7995 312.618 53.2266V52.6406L312.774 51.7812V51.7031C312.618 51.0781 312.54 50.6484 312.54 50.4141V50.1406C312.41 47.5885 312.345 45.8177 312.345 44.8281H312.267L304.181 44.6328L304.024 44.8281L304.063 46.3906L304.024 50.8047V52.1328C304.024 52.7839 304.103 53.4479 304.259 54.125L304.024 54.8672C304.181 55.1797 304.259 55.4141 304.259 55.5703C304.259 56.3255 303.751 56.7031 302.735 56.7031C300.991 56.7031 299.884 56.5469 299.415 56.2344C298.452 55.974 297.97 55.5833 297.97 55.0625L298.282 53.3828C298.386 53.3047 298.569 53.2656 298.829 53.2656H299.845C300.47 53.2656 300.782 53.1875 300.782 53.0312L300.821 52.6406V50.7266C300.821 46.4818 300.73 43.2526 300.548 41.0391L300.587 39.3203C300.483 39.3203 300.353 37.3932 300.196 33.5391L299.884 33.4219H299.845C297.761 33.4219 296.72 33.3047 296.72 33.0703L296.329 32.1719C296.329 31.5469 297.371 31.2344 299.454 31.2344C300.652 31.1562 301.759 31.1172 302.774 31.1172L303.282 31.2344L303.087 31.7422L303.204 32.0156C303.022 32.1979 302.931 32.3802 302.931 32.5625V32.7969L303.595 40.8047C303.595 41.2474 303.699 41.4688 303.907 41.4688L312.071 41.7422L312.149 41.5859L311.993 39.5938C311.993 39.4375 312.071 39.2292 312.228 38.9688L312.071 38.7734V38.6953L312.149 38.5391V38.4609L311.993 37.3672V36.1172C311.785 34.6589 311.629 33.8516 311.524 33.6953C311.29 33.6953 311.017 32.901 310.704 31.3125C310.782 30.6875 310.847 30.375 310.899 30.375C312.931 30.2448 314.545 30.0885 315.743 29.9062ZM311.681 30.8828L311.603 30.9609V31.0391C311.629 31.1432 311.72 31.1953 311.876 31.1953H312.071C312.306 31.1953 312.436 31.1432 312.462 31.0391C312.436 30.9349 312.332 30.8828 312.149 30.8828H311.681ZM312.071 31.625L311.993 31.7422V31.8203L312.071 31.8984L312.228 31.8203V31.625H312.071ZM297.306 32.1719L297.228 32.0156L297.149 32.0938V32.1719H297.306ZM302.228 34.1641H302.149V34.2812L302.228 34.3984H302.384V34.2812L302.228 34.1641ZM301.251 34.4375H301.056L301.017 34.9062L301.056 35.1016H301.251V34.75V34.7109V34.4375ZM313.868 37.5234L313.751 37.6016V37.7188L313.868 37.7969L313.985 37.7188V37.6016L313.868 37.5234ZM313.829 38.4609L313.868 38.6172H313.985L314.024 38.5V38.1484L313.985 38.0703C313.881 38.0703 313.829 38.2005 313.829 38.4609ZM301.329 41.7031H301.251V41.8594C301.251 42.0417 301.303 42.1458 301.407 42.1719H301.446L301.563 42.0938C301.563 41.9115 301.485 41.7812 301.329 41.7031ZM303.868 42.25H303.79V42.3281L303.907 42.4453H304.024V42.4062L303.868 42.25ZM309.493 42.25H308.204V42.3281L309.259 42.4453H309.493L309.571 42.3281L309.493 42.25ZM301.407 42.4844L301.329 42.5625V42.6406H301.407L301.524 42.5234V42.4844H301.407ZM309.923 43.6172L309.962 43.6562H310.509L310.665 43.5391L310.626 43.4609H310.313C310.079 43.4609 309.949 43.513 309.923 43.6172ZM312.618 46L312.54 46.1172V46.2344L312.657 46.3516H312.735V46.1172L312.618 46ZM312.618 46.5859L312.54 46.6641V47.0938H312.618L312.735 47.0156V46.6641L312.618 46.5859ZM313.829 51.4297L313.634 51.2734V51.5469L313.712 51.625L313.829 51.5469V51.4297ZM303.282 51.3906H303.126V51.4297C303.152 51.612 303.204 51.7031 303.282 51.7031H303.399L303.282 51.3906ZM300.47 54.3594H300.313V54.4375H300.47V54.3594ZM303.517 54.9844L303.36 55.1797V55.2188L303.478 55.375H303.517L303.751 55.1797V55.1016L303.634 54.9844H303.517ZM318.204 55.4531L318.126 55.4922V55.6484H318.36V55.4922L318.243 55.4531H318.204ZM317.071 55.4922L316.915 55.6484L316.993 55.8047H317.188C317.371 55.8047 317.475 55.7526 317.501 55.6484L317.423 55.4922H317.071ZM322.892 36.625L325.548 37.5234C325.574 37.9141 325.73 38.3307 326.017 38.7734L326.095 39.2031C325.86 40.8698 325.795 44.3333 325.899 49.5938C325.899 50.349 326.212 50.8438 326.837 51.0781L327.11 51.7031C327.11 51.8594 327.97 52.0026 329.688 52.1328H329.845C330.392 52.1328 331.069 51.5469 331.876 50.375C332.501 49.75 332.918 49.2552 333.126 48.8906H333.321V48.6562L333.243 48.4609C333.399 48.2266 333.517 47.875 333.595 47.4062H333.634V47.0547L334.337 39.6328V38.9297L334.259 38.5391V38.5C334.545 38.2917 334.688 37.9661 334.688 37.5234C334.688 37.237 334.78 37.0807 334.962 37.0547L335.86 37.5234H336.72C337.761 37.5234 338.504 37.7448 338.946 38.1875V38.3438C338.66 38.3438 338.517 38.3958 338.517 38.5L338.907 39.3984H339.024C339.077 39.0078 339.129 38.8125 339.181 38.8125C339.285 38.9427 339.35 39.1641 339.376 39.4766L338.946 44.3203L339.024 44.3984V44.4375C338.842 44.9844 338.66 46.5599 338.478 49.1641V50.2969C338.478 51.9896 338.556 52.8359 338.712 52.8359H338.868C339.337 52.8359 340.092 52.7318 341.134 52.5234C341.238 52.5495 341.472 52.7057 341.837 52.9922C341.733 55.3359 341.577 56.5078 341.368 56.5078L340.938 56.1562L339.767 56.2344L335.431 56.1562C335.196 56.1562 334.962 55.6224 334.728 54.5547C334.571 54.4245 334.493 54.2682 334.493 54.0859L334.571 53.7344H334.454C334.246 53.7344 333.478 54.0859 332.149 54.7891C332.071 54.9714 331.16 55.349 329.415 55.9219C329.024 56.1302 328.504 56.3385 327.853 56.5469C327.462 56.3125 326.837 56.0781 325.978 55.8438C324.337 54.2292 323.334 52.8099 322.97 51.5859C322.293 50.6224 321.954 48.5651 321.954 45.4141L322.384 40.8438V40.7266C322.384 40.6745 321.498 40.5052 319.728 40.2188C319.571 39.9844 319.493 39.3333 319.493 38.2656C319.493 37.5625 319.61 37.2109 319.845 37.2109C319.845 36.9245 320.86 36.7292 322.892 36.625ZM322.228 37.0938L322.071 37.1719V37.25H322.345V37.1719L322.228 37.0938ZM323.204 37.4062L323.009 37.4844V37.5234C323.009 37.5495 323.204 37.6667 323.595 37.875C323.595 38.2135 323.621 38.3828 323.673 38.3828H323.907C324.532 38.3828 324.91 38.2786 325.04 38.0703V37.9922C325.04 37.8099 324.649 37.6667 323.868 37.5625C323.868 37.5104 323.712 37.4583 323.399 37.4062H323.204ZM320.548 38.5H320.04V38.6172L320.118 38.6562H320.235L320.548 38.6172V38.5ZM320.548 38.8906H320.235V38.9688C320.261 39.125 320.405 39.2031 320.665 39.2031L320.704 39.125V39.0469L320.548 38.8906ZM335.079 37.9531H335.001C335.001 38.2135 335.209 38.3438 335.626 38.3438H335.86L335.978 38.2656V38.2266C335.978 38.0964 335.678 38.0052 335.079 37.9531ZM321.563 39.3594C321.563 39.5156 321.98 39.737 322.813 40.0234H323.204C323.308 40.0234 323.36 39.9323 323.36 39.75C323.074 39.4635 322.722 39.2812 322.306 39.2031H321.993C321.733 39.2031 321.59 39.2552 321.563 39.3594ZM321.056 39.2422L320.86 39.3203V39.4375L320.899 39.4766V39.5156C321.134 39.4635 321.251 39.3984 321.251 39.3203V39.2422H321.056ZM324.493 39.6719V40.4141L324.61 40.4922C324.767 40.4141 324.845 40.2578 324.845 40.0234V39.5938C324.845 39.4375 324.806 39.3333 324.728 39.2812H324.649C324.545 39.3073 324.493 39.4375 324.493 39.6719ZM320.196 39.5156L320.04 39.6719L320.118 39.75H320.431L320.548 39.6719L320.392 39.5156H320.196ZM335.431 39.2031L335.313 39.3203V39.3984C335.313 39.5026 335.405 39.5547 335.587 39.5547H335.626C335.808 39.5547 335.912 39.5026 335.938 39.3984V39.3203C335.912 39.2422 335.782 39.2031 335.548 39.2031H335.431ZM322.774 41.4297V41.7422L323.36 41.5469V40.7266L323.282 40.6094C323.152 40.6094 322.983 40.8828 322.774 41.4297ZM335.978 43.5V43.6562H336.017C336.277 43.6562 336.407 43.3568 336.407 42.7578C336.381 42.4974 336.342 42.3672 336.29 42.3672C336.212 42.3672 336.108 42.7448 335.978 43.5ZM337.54 44.7109H337.423L337.345 44.8672C337.397 44.9974 337.449 45.0625 337.501 45.0625H337.54V44.7109ZM323.478 45.8047L323.36 45.7656L323.204 45.9219V46L323.36 46.0781L323.478 45.9609V45.8047ZM335.431 47.2109L335.626 47.4062C335.756 47.3542 335.834 47.0938 335.86 46.625L335.821 46.5469H335.743C335.535 46.7031 335.431 46.9245 335.431 47.2109ZM324.259 47.1328V47.4062C324.259 47.7448 324.428 48.0052 324.767 48.1875H324.884C324.884 47.224 324.806 46.7422 324.649 46.7422H324.493C324.337 46.8203 324.259 46.9505 324.259 47.1328ZM335.353 47.6406L335.235 47.7578V48.1094L335.353 48.2656C335.509 48.1875 335.626 48.0703 335.704 47.9141V47.7578L335.587 47.6406H335.353ZM322.931 48.0703L322.813 48.1875V48.3438C322.813 49.3594 323.36 50.9479 324.454 53.1094C324.662 53.2396 324.806 53.3047 324.884 53.3047V53.1094L323.751 49.9453C323.412 48.7474 323.152 48.1224 322.97 48.0703H322.931ZM336.29 49.1641L336.134 49.3203V49.3594L336.29 49.4766L336.407 49.3594L336.368 49.1641H336.29ZM331.993 51.0781L332.032 51.1562H332.071C332.696 50.3229 333.009 49.8411 333.009 49.7109V49.6328H332.892C332.683 49.8932 332.384 50.375 331.993 51.0781ZM325.001 49.7109V49.75C325.079 49.9062 325.183 49.9844 325.313 49.9844V49.9453C325.313 49.7891 325.209 49.7109 325.001 49.7109ZM336.212 49.7891H336.134V50.0234C336.134 50.4401 336.199 50.974 336.329 51.625H336.446C336.55 51.2344 336.603 50.8568 336.603 50.4922V50.2188C336.603 49.9323 336.472 49.7891 336.212 49.7891ZM334.103 50.1797L333.946 49.9844C333.79 50.1927 333.712 50.349 333.712 50.4531L333.907 50.5703H333.946L334.103 50.4531V50.1797ZM335.431 50.5703H335.353V50.8438H335.431L335.548 50.7266V50.6094L335.431 50.5703ZM326.134 51.7031H326.095V51.8203L326.173 51.9375H326.212V51.8203L326.134 51.7031ZM337.892 51.7422L337.501 52.3281V52.4453H337.892L338.048 52.3281V52.1328C338.048 51.8984 337.996 51.7682 337.892 51.7422ZM334.259 52.4062V52.4453H334.337L334.61 52.2109V52.0547C334.376 52.0547 334.259 52.1719 334.259 52.4062ZM335.431 52.3281L335.313 52.4453V52.9141C335.313 54.737 335.405 55.6484 335.587 55.6484H335.704C335.886 55.6224 335.978 55.5443 335.978 55.4141C335.769 55.0495 335.652 54.099 335.626 52.5625L335.431 52.3281ZM325.86 52.5234H325.743V52.6797C325.769 52.7839 325.86 52.8359 326.017 52.8359V52.6797L325.86 52.5234ZM326.837 52.7969H326.72V52.8359C326.72 53.1224 327.175 53.5391 328.087 54.0859C329.129 53.6693 329.649 53.4089 329.649 53.3047V53.2656C328.972 53.2656 328.035 53.1094 326.837 52.7969ZM328.712 54.2422V54.3203H329.181C330.196 54.0859 330.873 53.7344 331.212 53.2656V53.1094H331.017C330.86 53.1094 330.092 53.487 328.712 54.2422ZM340.235 53.4219L339.024 53.5781V53.7344L339.259 53.7734H339.415C339.988 53.7474 340.274 53.6562 340.274 53.5V53.4219H340.235ZM340.235 54.0859H340.079V54.3203H340.235L340.353 54.2422V54.1641C340.353 54.112 340.313 54.0859 340.235 54.0859ZM337.071 54.7109L336.954 54.7891V54.9062C337.006 55.0365 337.162 55.1016 337.423 55.1016H337.813L337.931 55.0234V54.9453C337.931 54.8151 337.761 54.737 337.423 54.7109H337.071ZM327.97 55.1016H327.657L326.095 54.9453H326.017L325.86 55.1016V55.1406C325.86 55.375 326.59 55.6354 328.048 55.9219C328.491 55.9219 329.363 55.5964 330.665 54.9453L330.704 54.9062V54.7891H330.431C329.649 54.9974 328.829 55.1016 327.97 55.1016ZM351.407 24.5938C351.98 24.5938 352.449 24.75 352.813 25.0625C352.501 25.8958 352.293 27.2109 352.188 29.0078L351.837 32.6016C351.837 32.7839 352.358 32.875 353.399 32.875C356.472 32.875 358.009 33.0182 358.009 33.3047C358.139 33.3047 358.295 33.3828 358.478 33.5391C358.217 33.8776 358.087 34.125 358.087 34.2812V34.3984L358.204 35.1797L357.696 36.8984C357.696 37.0807 357.892 37.3411 358.282 37.6797V37.7578C357.657 37.9661 357.149 38.0703 356.759 38.0703C356.342 38.0443 356.134 37.9792 356.134 37.875V37.7969L356.485 37.7578H356.759L356.915 37.6016V37.5234L356.759 37.4844L354.142 37.5234L351.993 37.4844C351.863 37.4844 351.72 38.2135 351.563 39.6719H351.524L350.978 39.0469L350.86 39.4766V39.7109C350.886 40.4401 350.978 40.8307 351.134 40.8828C351.238 40.8828 351.329 40.6484 351.407 40.1797V39.9062H351.524L351.563 40.0234L351.29 43.7734C351.603 49.1641 351.876 51.8594 352.11 51.8594C352.241 52.6927 352.566 53.1094 353.087 53.1094C353.373 53.2917 353.725 53.3828 354.142 53.3828H354.845L357.188 53.2656C357.241 53.2656 357.332 53.9557 357.462 55.3359C357.514 55.7526 357.423 56.0521 357.188 56.2344C356.98 56.4427 356.616 56.5469 356.095 56.5469L353.087 56.625C351.446 56.625 350.066 56.1693 348.946 55.2578C348.217 54.9974 347.853 54.2161 347.853 52.9141C347.8 52.2109 347.709 50.1276 347.579 46.6641L348.048 41.3516L348.165 39.0469V38.7344C347.983 37.6406 347.67 37.0938 347.228 37.0938H346.056H344.688C344.298 37.0938 343.907 37.1849 343.517 37.3672C343.256 37.3411 342.931 36.9896 342.54 36.3125L343.321 32.8359C343.321 32.7318 344.897 32.6667 348.048 32.6406C348.048 32.3021 348.23 31.8724 348.595 31.3516C348.699 27.2891 348.842 25.2578 349.024 25.2578V25.1406C349.024 25.0885 348.959 25.0625 348.829 25.0625V24.9453C348.829 24.8672 349.688 24.75 351.407 24.5938ZM349.923 25.6484H349.884V25.8828H350.001V25.7266L349.923 25.6484ZM351.603 25.7266L351.446 25.8828V25.9609L351.563 26.8594H351.642C351.954 26.5469 352.11 26.2734 352.11 26.0391V25.8828L351.993 25.7266H351.603ZM350.196 27.1719L350.079 27.0547C350.027 27.3151 350.001 27.6536 350.001 28.0703V28.2266H350.079L350.196 27.5625V27.1719ZM350.313 28.8125H350.235L350.079 32.6797V32.7188L350.196 32.8359H350.274C350.457 32.8359 350.548 32.5104 350.548 31.8594V30.9609L350.47 29.0469C350.418 28.8906 350.366 28.8125 350.313 28.8125ZM343.556 33.3047C343.556 33.487 343.673 33.5781 343.907 33.5781H344.493C345.561 33.5781 346.55 33.526 347.462 33.4219V33.3438C347.462 33.2135 346.824 33.1484 345.548 33.1484H343.907C343.673 33.1484 343.556 33.2005 343.556 33.3047ZM355.743 33.1484L355.235 33.3438H354.767H354.103V33.4609C354.675 33.6172 355.17 33.6953 355.587 33.6953H356.485C356.537 33.6953 356.563 33.6562 356.563 33.5781C356.511 33.2917 356.368 33.1484 356.134 33.1484H355.743ZM356.837 33.5391L356.72 33.6172V33.6953L356.837 33.7344C357.097 33.7344 357.241 33.6823 357.267 33.5781V33.5391H356.837ZM344.181 34.0469L344.103 34.125V34.3594C344.103 34.6198 344.975 34.75 346.72 34.75C347.605 34.75 348.048 34.6849 348.048 34.5547C348.048 34.2422 346.902 34.0729 344.61 34.0469H344.181ZM352.501 34.3984L352.384 34.5156V34.5547C352.384 34.6849 352.853 34.763 353.79 34.7891L354.454 34.75L355.353 34.9062H355.509C355.691 34.9062 355.782 34.8281 355.782 34.6719H355.743L352.774 34.3984H352.501ZM356.72 35.2578L356.563 35.4141V35.4531L356.72 35.5703H356.915C357.149 35.5703 357.293 35.4922 357.345 35.3359L357.228 35.2578H356.72ZM344.532 35.4141L344.376 35.5312C344.376 35.6354 344.441 35.6875 344.571 35.6875L345.548 35.7266L346.603 35.6875L346.642 35.6484V35.5703C346.329 35.4661 345.743 35.4141 344.884 35.4141H344.532ZM347.579 36.1562L344.376 36.0391V36.1172C344.376 36.2995 345.366 36.3906 347.345 36.3906L347.657 36.3125V36.2734L347.579 36.1562ZM353.165 36.2734H352.97V36.3906C352.996 36.4427 353.452 36.5729 354.337 36.7812H354.415V36.7031C353.998 36.4167 353.582 36.2734 353.165 36.2734ZM355.157 36.6641C355.86 36.8984 356.485 37.0156 357.032 37.0156L357.188 36.8594V36.625L357.071 36.5078H356.212C355.509 36.5078 355.157 36.5599 355.157 36.6641ZM349.728 38.0703V38.3828L349.845 38.5C349.949 38.474 350.001 38.3828 350.001 38.2266V38.0703L349.923 37.7969H349.884C349.78 37.8229 349.728 37.9141 349.728 38.0703ZM351.173 38.7734L350.978 38.6172V38.7344L351.134 38.8906H351.173V38.7734ZM349.923 38.8516H349.845L349.806 39.0469V39.2422L349.845 39.4766H350.001V39.125V38.9297L349.923 38.8516ZM350.001 41.5469H349.884V41.8594L350.001 42.0156H350.079V41.8594L350.001 41.5469ZM348.126 46.5078L348.243 47.6016L348.204 48.9688L348.243 49.3594H348.36C348.517 49.3594 348.595 48.7474 348.595 47.5234V46.625C348.595 45.4271 348.543 44.8281 348.438 44.8281C348.256 44.8281 348.152 45.388 348.126 46.5078ZM350.665 49.5938H350.587L350.548 49.8672V50.1797C350.548 50.362 350.6 50.4661 350.704 50.4922H350.782C350.886 50.4661 350.938 50.375 350.938 50.2188C350.912 49.8021 350.821 49.5938 350.665 49.5938ZM350.978 51.2734L350.821 51.7031C350.821 52.3021 350.952 52.6797 351.212 52.8359L351.29 52.6797V52.3281C351.264 51.6771 351.16 51.3255 350.978 51.2734ZM349.454 51.5469H349.337V52.1328L349.415 52.3672H349.454L349.532 52.2891V51.625L349.454 51.5469ZM350.587 54.0078V54.0469V54.2812C350.613 54.3854 350.704 54.4896 350.86 54.5938H351.134V54.5156C351.134 54.2292 350.952 54.0599 350.587 54.0078ZM354.923 54.7891H355.079C356.043 54.6328 356.524 54.4635 356.524 54.2812L356.446 54.2031C355.431 54.4635 354.923 54.6589 354.923 54.7891ZM349.61 54.2422H349.532V54.3984C349.61 55.0495 349.897 55.375 350.392 55.375H350.782L350.86 55.2578V55.2188C350.86 55.1667 350.626 55.0755 350.157 54.9453L349.61 54.2422Z" fill="black"/>
<path d="M168.409 25.77L166.947 25.566C166.902 25.566 166.822 25.6 166.709 25.668C166.596 25.7133 166.539 25.7473 166.539 25.77L162.085 46C162.04 46.2267 161.926 46.4307 161.745 46.612C161.564 46.7933 161.36 46.884 161.133 46.884C160.906 46.884 160.714 46.8047 160.555 46.646C160.396 46.51 160.317 46.3627 160.317 46.204C160.317 46.068 160.34 45.932 160.385 45.796L156.815 34.814V34.678L156.577 34.61C156.464 34.61 156.203 35.528 155.795 37.364L154.095 44.742C154.095 44.8327 154.163 44.8893 154.299 44.912C154.48 44.9573 154.662 45.014 154.843 45.082C155.342 45.2633 155.591 45.524 155.591 45.864C155.591 46.2267 155.546 46.4533 155.455 46.544C155.387 46.612 155.149 46.6347 154.741 46.612C154.356 46.612 153.71 46.5893 152.803 46.544C151.919 46.5213 150.967 46.476 149.947 46.408C148.95 46.3627 147.998 46.3173 147.091 46.272C146.207 46.2493 145.584 46.2267 145.221 46.204C144.926 46.0907 144.779 45.9093 144.779 45.66C144.779 45.388 144.847 45.184 144.983 45.048C145.142 44.912 145.323 44.7987 145.527 44.708C145.799 44.5947 146.128 44.538 146.513 44.538C146.581 44.538 146.649 44.538 146.717 44.538V43.688L141.855 26.586L141.617 26.382C141.209 27.2433 141.005 28.3087 141.005 29.578C141.005 29.9633 141.039 30.2807 141.107 30.53C141.198 30.7793 141.243 31.0513 141.243 31.346C141.243 31.618 141.198 31.788 141.107 31.856C141.016 31.9013 140.79 31.924 140.427 31.924C140.064 31.924 139.781 31.788 139.577 31.516C139.396 31.2213 139.305 30.768 139.305 30.156C139.305 29.544 139.316 28.9887 139.339 28.49C139.339 28.014 139.384 27.5267 139.475 27.028C139.702 25.8493 140.144 25.0787 140.801 24.716L141.379 24.444C142.399 23.9453 142.977 23.6847 143.113 23.662H147.771C147.93 23.662 148.145 23.7413 148.417 23.9C148.689 24.036 148.825 24.1833 148.825 24.342C148.825 24.5007 148.791 24.614 148.723 24.682C148.655 24.75 148.576 24.818 148.485 24.886C148.258 25.0673 148.145 25.2487 148.145 25.43L148.179 25.77L152.803 41.988L153.007 42.192L153.857 40.118L155.557 31.04C155.534 30.9493 155.523 30.8587 155.523 30.768V30.496C155.523 29.7027 155.636 28.9207 155.863 28.15C156.09 27.3793 156.203 26.586 156.203 25.77C156.067 25.6793 155.761 25.5887 155.285 25.498C154.832 25.4073 154.435 25.362 154.095 25.362L153.959 25.056C153.914 24.9427 153.88 24.8407 153.857 24.75C153.857 24.6367 153.914 24.5007 154.027 24.342C154.14 24.1833 154.299 24.0927 154.503 24.07L157.665 23.866C158.39 23.866 158.753 24.1607 158.753 24.75C158.753 25.362 158.526 25.838 158.073 26.178C157.824 27.0393 157.62 27.81 157.461 28.49C157.302 29.1473 157.223 29.8727 157.223 30.666V31.448L161.031 43.484L161.235 43.688L164.601 27.028V25.838L162.697 26.008C162.516 26.008 162.357 25.9967 162.221 25.974C162.108 25.9287 162.051 25.7927 162.051 25.566C162.051 24.4327 163.218 23.866 165.553 23.866C167.91 23.866 169.089 24.2627 169.089 25.056C169.089 25.532 168.862 25.77 168.409 25.77ZM186.479 47.122C184.258 47.122 182.546 45.762 181.345 43.042C181.164 43.926 180.348 44.776 178.897 45.592C177.56 46.34 176.336 46.714 175.225 46.714C173.797 46.714 172.55 46.0793 171.485 44.81C170.556 43.6993 170.091 42.4753 170.091 41.138V35.46C170.091 35.188 170.023 34.9727 169.887 34.814C169.751 34.6327 169.604 34.4627 169.445 34.304C169.286 34.1227 169.139 33.9413 169.003 33.76C168.867 33.556 168.799 33.2953 168.799 32.978C168.799 32.3207 169.91 31.992 172.131 31.992H173.457C174.296 31.992 174.874 32.0147 175.191 32.06L176.449 32.502C176.449 33.318 176.381 34.4967 176.245 36.038C175.973 38.9847 175.826 40.8547 175.803 41.648V42.022C175.826 42.6793 175.882 43.11 175.973 43.314C176.2 43.7447 176.585 43.96 177.129 43.96C177.514 43.96 177.866 43.8467 178.183 43.62L179.033 43.042C179.078 42.974 179.248 42.736 179.543 42.328C180.11 41.6253 180.393 41.2287 180.393 41.138V32.502C180.393 31.7993 181.64 31.4253 184.133 31.38H185.867C186.343 31.38 186.66 31.4367 186.819 31.55C187 31.6407 187.091 31.8107 187.091 32.06C187.091 32.2867 187.08 32.4453 187.057 32.536C187.034 32.604 186.966 32.6607 186.853 32.706C186.785 33.2047 186.694 33.6693 186.581 34.1L186.309 35.324C186.105 36.2307 186.003 37.126 186.003 38.01C186.003 41.5233 186.66 43.722 187.975 44.606C188.428 44.9007 188.814 45.1047 189.131 45.218C189.471 45.3313 189.641 45.3993 189.641 45.422C189.641 45.762 189.256 46.136 188.485 46.544C187.465 46.9293 186.819 47.122 186.547 47.122C186.547 47.122 186.536 47.122 186.513 47.122H186.479ZM204.05 33.658C203.098 33.658 202.622 33.42 202.622 32.944C202.622 32.9213 202.667 32.8193 202.758 32.638C202.848 32.434 202.939 32.3207 203.03 32.298L209.626 31.89C209.626 31.89 209.637 31.89 209.66 31.89C209.728 31.89 209.875 31.992 210.102 32.196L210.476 32.536C210.476 33.0347 209.841 33.3067 208.572 33.352C208.254 33.352 207.971 33.3633 207.722 33.386C207.427 35.4033 206.951 37.3413 206.294 39.2L204.696 43.824C204.265 45.048 203.891 46.0227 203.574 46.748C203.279 47.4733 202.939 48.21 202.554 48.958C202.168 49.7287 201.749 50.488 201.296 51.236C200.842 51.984 200.389 52.6527 199.936 53.242C198.893 54.5567 197.975 55.214 197.182 55.214C197.159 55.214 197.148 55.214 197.148 55.214C195.72 55.214 194.156 54.228 192.456 52.256C191.549 51.2133 190.937 50.3747 190.62 49.74C190.302 49.1053 190.144 48.686 190.144 48.482C190.144 48.278 190.212 48.108 190.348 47.972C190.484 47.8587 190.654 47.768 190.858 47.7C191.13 47.6093 191.515 47.564 192.014 47.564C192.512 47.564 192.909 47.5867 193.204 47.632C193.498 47.6773 193.77 47.8133 194.02 48.04C194.586 48.584 194.87 49.706 194.87 51.406C195.346 52.018 195.686 52.426 195.89 52.63C196.343 53.038 196.808 53.242 197.284 53.242C197.805 53.2193 198.474 52.528 199.29 51.168C200.083 49.808 200.48 48.6973 200.48 47.836C200.48 46.9973 200.344 46.272 200.072 45.66C199.822 45.0253 199.494 44.402 199.086 43.79C198.7 43.178 198.27 42.566 197.794 41.954C197.34 41.3193 196.83 40.5487 196.264 39.642C195.72 38.7127 195.051 37.806 194.258 36.922C193.487 36.038 192.512 35.3467 191.334 34.848C191.175 34.78 190.982 34.7233 190.756 34.678C190.506 34.6553 190.268 34.5987 190.042 34.508C189.475 34.304 189.192 34.0093 189.192 33.624C189.192 33.216 189.35 32.9213 189.668 32.74C189.985 32.536 190.393 32.3887 190.892 32.298C191.39 32.1847 191.946 32.1053 192.558 32.06C193.17 32.0147 193.623 31.9807 193.918 31.958C194.212 31.9127 194.416 31.89 194.53 31.89C194.643 31.89 194.779 31.9013 194.938 31.924C195.119 31.9467 195.3 31.9693 195.482 31.992C195.686 32.0147 195.912 32.0827 196.162 32.196C196.411 32.2867 196.74 32.536 197.148 32.944L198.304 34.372C199.029 35.324 199.686 36.2647 200.276 37.194L202.384 40.628C202.701 41.036 203.064 41.6593 203.472 42.498H203.676C203.766 42.294 204.027 41.4893 204.458 40.084C204.888 38.6787 205.41 36.65 206.022 33.998L205.988 33.488L204.05 33.658ZM221.004 35.392C221.004 33.6013 220.211 32.706 218.624 32.706C217.944 32.706 217.468 32.9667 217.196 33.488C217.06 33.7827 216.981 34.1113 216.958 34.474C216.958 34.814 217.003 35.0293 217.094 35.12C217.207 35.2107 217.264 35.3693 217.264 35.596C217.264 36.004 217.026 36.276 216.55 36.412C216.255 36.5027 215.825 36.548 215.258 36.548C214.85 36.548 214.34 36.65 213.728 36.854C213.116 37.058 212.765 37.16 212.674 37.16C212.47 37.16 212.311 37.0353 212.198 36.786C212.107 36.5367 212.062 36.2987 212.062 36.072C212.062 35.664 212.323 35.0293 212.844 34.168C213.388 33.284 213.853 32.6947 214.238 32.4C214.941 31.8787 215.587 31.4593 216.176 31.142C216.765 30.802 217.377 30.632 218.012 30.632C221.276 30.632 223.384 31.5047 224.336 33.25C224.88 34.2473 225.152 35.4487 225.152 36.854C225.152 37.466 225.073 38.0893 224.914 38.724C224.755 39.3587 224.676 39.9707 224.676 40.56C224.676 41.512 224.869 42.396 225.254 43.212C225.753 43.9147 226.183 44.3227 226.546 44.436C226.682 44.436 226.807 44.3907 226.92 44.3C227.056 44.2093 227.181 44.164 227.294 44.164C227.77 44.164 228.008 44.402 228.008 44.878C228.008 45.3313 227.804 45.728 227.396 46.068C226.58 46.748 225.798 47.088 225.05 47.088C224.302 47.088 223.769 47.0427 223.452 46.952C223.135 46.8613 222.851 46.7367 222.602 46.578C222.353 46.4193 222.137 46.2493 221.956 46.068L221.412 45.558L220.902 45.048C220.766 44.8893 220.687 44.81 220.664 44.81C219.123 46.6687 217.173 47.598 214.816 47.598C213.479 47.598 212.379 47.1333 211.518 46.204C210.679 45.2747 210.26 44.402 210.26 43.586C210.26 42.0447 211.031 40.798 212.572 39.846C214.159 38.894 216.561 38.1913 219.78 37.738C220.097 37.7153 220.347 37.636 220.528 37.5C220.845 37.2733 221.004 36.5707 221.004 35.392ZM216.278 40.798C216.029 41.206 215.904 41.5913 215.904 41.954C215.904 42.8153 215.983 43.6087 216.142 44.334C216.301 45.0593 216.573 45.4447 216.958 45.49C217.525 45.49 218.012 45.3313 218.42 45.014C219.145 44.4473 219.531 43.8807 219.576 43.314L219.984 39.064C218.216 39.064 216.981 39.642 216.278 40.798ZM229.676 46.68C229.042 46.5893 228.724 46.1927 228.724 45.49C228.77 45.1727 228.86 44.98 228.996 44.912C229.132 44.844 229.314 44.81 229.54 44.81L229.812 44.844C230.447 44.844 230.855 44.572 231.036 44.028C231.172 43.688 231.24 43.0987 231.24 42.26C231.24 42.192 231.229 42.124 231.206 42.056C231.206 41.988 231.206 41.92 231.206 41.852C231.206 40.9453 231.286 39.9253 231.444 38.792C231.603 37.6133 231.682 36.5367 231.682 35.562C231.682 34.5647 231.648 33.692 231.58 32.944L230.016 33.012H229.676C229.472 32.9667 229.246 32.8987 228.996 32.808C228.747 32.7173 228.622 32.5813 228.622 32.4C228.622 32.2187 228.69 32.0487 228.826 31.89C228.985 31.7313 229.087 31.6067 229.132 31.516C229.268 31.5387 229.393 31.55 229.506 31.55H230.254C230.64 31.55 230.968 31.5387 231.24 31.516C231.512 31.4933 231.716 31.482 231.852 31.482C232.011 31.4593 232.158 31.4367 232.294 31.414C232.453 31.3913 232.759 31.38 233.212 31.38C233.87 31.38 234.754 31.1307 235.864 30.632C236.136 30.6773 236.363 30.768 236.544 30.904C236.748 31.0173 236.896 31.0967 236.986 31.142L236.816 32.808C236.862 32.8533 236.93 32.876 237.02 32.876C237.202 32.876 237.542 32.6947 238.04 32.332C239.106 31.856 239.956 31.5047 240.59 31.278C241.225 31.0287 241.724 30.904 242.086 30.904C242.449 30.904 242.8 30.9607 243.14 31.074C243.503 31.1873 243.866 31.3573 244.228 31.584C245.067 32.0827 245.645 32.6947 245.962 33.42C246.484 34.712 246.744 35.7887 246.744 36.65C246.744 37.0127 246.699 37.4887 246.608 38.078C246.427 39.1887 246.325 40.016 246.302 40.56C246.302 41.3987 246.359 41.9993 246.472 42.362C246.563 42.7247 246.654 43.042 246.744 43.314C246.948 44.0167 247.118 44.3907 247.254 44.436C247.368 44.5493 247.515 44.6287 247.696 44.674C247.878 44.6967 248.059 44.7307 248.24 44.776C248.648 44.8893 248.852 45.1047 248.852 45.422C248.852 45.7393 248.308 45.9887 247.22 46.17C246.586 46.2833 246.019 46.34 245.52 46.34C244.5 46.34 243.707 46.136 243.14 45.728C241.531 44.5493 240.726 42.1467 240.726 38.52C240.726 35.4827 240.137 33.964 238.958 33.964C238.346 33.964 237.791 34.2587 237.292 34.848C236.816 35.4147 236.556 35.9587 236.51 36.48L235.83 43.212C235.83 44.0053 236.057 44.5607 236.51 44.878C236.964 45.1727 237.564 45.354 238.312 45.422C238.471 45.4447 238.55 45.558 238.55 45.762C238.55 46.1927 238.142 46.408 237.326 46.408C237.032 46.408 236.68 46.3513 236.272 46.238C235.456 46.0113 234.686 45.898 233.96 45.898C233.258 45.898 231.83 46.1587 229.676 46.68ZM250.214 24.954L249.67 23.322C249.67 22.5513 250.157 21.9847 251.132 21.622C251.381 21.5313 251.631 21.486 251.88 21.486C252.628 21.486 253.183 21.724 253.546 22.2C253.931 22.6533 254.124 23.2653 254.124 24.036C254.124 24.6253 254.022 25.0447 253.818 25.294C253.614 25.5433 253.331 25.8493 252.968 26.212C252.605 26.5747 252.22 26.9147 251.812 27.232C250.792 28.048 249.987 28.456 249.398 28.456C248.809 28.456 248.514 28.3427 248.514 28.116C248.514 27.8893 248.605 27.708 248.786 27.572C248.945 27.4133 249.137 27.2433 249.364 27.062C249.953 26.586 250.248 26.0193 250.248 25.362L250.214 24.954ZM262.167 32.502C260.286 32.502 259.345 32.7853 259.345 33.352C259.345 34.0547 259.56 34.678 259.991 35.222C260.422 35.766 260.954 36.2873 261.589 36.786C262.224 37.262 262.915 37.7267 263.663 38.18C264.434 38.6333 265.136 39.1093 265.771 39.608C267.267 40.7867 268.015 42.022 268.015 43.314C268.015 44.9007 267.131 45.9887 265.363 46.578C264.275 46.9407 262.915 47.122 261.283 47.122C259.674 47.122 258.336 46.9973 257.271 46.748C256.228 46.4987 255.378 46.3287 254.721 46.238C254.086 46.17 253.701 46.0453 253.565 45.864C253.452 45.6827 253.395 45.4673 253.395 45.218C253.395 44.946 253.452 44.708 253.565 44.504C253.678 44.2773 253.814 44.062 253.973 43.858C254.426 43.2687 254.698 42.8493 254.789 42.6C254.88 42.328 254.948 42.0787 254.993 41.852C255.038 41.6707 255.106 41.4893 255.197 41.308C255.378 40.9 255.662 40.696 256.047 40.696C256.455 40.696 256.795 40.9567 257.067 41.478C257.362 41.9993 257.69 42.5773 258.053 43.212C258.438 43.824 258.892 44.3907 259.413 44.912C259.957 45.4333 260.671 45.694 261.555 45.694C263.074 45.694 263.833 45.2747 263.833 44.436C263.833 43.7333 263.04 42.7813 261.453 41.58C260.773 41.0587 260.025 40.5147 259.209 39.948C258.393 39.3813 257.645 38.8147 256.965 38.248C255.356 36.9333 254.551 35.8 254.551 34.848C254.551 33.964 254.778 33.284 255.231 32.808C255.707 32.3093 256.285 31.924 256.965 31.652C257.894 31.2667 259.322 30.9947 261.249 30.836L262.949 30.802L265.533 30.768C266.53 30.768 267.131 30.836 267.335 30.972C267.63 31.1987 267.777 31.6293 267.777 32.264C267.777 32.8987 267.766 33.454 267.743 33.93C267.743 34.406 267.72 34.8253 267.675 35.188C267.584 35.936 267.358 36.31 266.995 36.31C266.496 36.31 266.054 36.1173 265.669 35.732C265.284 35.324 264.91 34.882 264.547 34.406C264.207 33.93 263.844 33.4993 263.459 33.114C263.096 32.706 262.666 32.502 262.167 32.502Z" fill="black"/>
<path d="M266.045 21.102C266.045 14.3593 266.002 10.3293 265.915 9.012C265.759 6.62 265.681 5.22467 265.681 4.826C265.681 4.42733 265.794 4.10667 266.019 3.864C266.262 3.62133 266.548 3.5 266.877 3.5C267.207 3.5 267.475 3.62133 267.683 3.864C267.891 4.10667 267.995 4.41 267.995 4.774C267.995 5.866 267.952 7.348 267.865 9.22C267.692 13.6227 267.605 16.8987 267.605 19.048C267.605 19.568 267.77 20.0707 268.099 20.556C268.446 21.024 268.619 21.4487 268.619 21.83C268.619 22.2113 268.489 22.532 268.229 22.792C267.969 23.0347 267.675 23.156 267.345 23.156C266.479 23.156 266.045 22.4713 266.045 21.102ZM271.891 21.102C271.891 18.918 271.848 17.0027 271.761 15.356C271.675 13.7093 271.631 12.7387 271.631 12.444C271.631 12.1493 271.744 11.8633 271.969 11.586C272.212 11.2913 272.498 11.144 272.827 11.144C273.157 11.144 273.425 11.2827 273.633 11.56C273.841 11.82 273.945 12.21 273.945 12.73C273.945 13.2327 273.885 14.0907 273.763 15.304C273.642 16.5 273.581 17.748 273.581 19.048C273.581 19.568 273.685 20.0707 273.893 20.556C274.119 21.024 274.231 21.4573 274.231 21.856C274.231 22.2373 274.119 22.5493 273.893 22.792C273.685 23.0347 273.391 23.156 273.009 23.156C272.645 23.156 272.368 22.948 272.177 22.532C271.987 22.116 271.891 21.6393 271.891 21.102ZM272.723 8.206C272.342 8.206 272.039 8.102 271.813 7.894C271.588 7.686 271.475 7.38267 271.475 6.984C271.475 6.58533 271.614 6.24733 271.891 5.97C272.169 5.67533 272.498 5.528 272.879 5.528C273.261 5.528 273.564 5.64067 273.789 5.866C274.032 6.074 274.153 6.37733 274.153 6.776C274.153 7.17467 274.006 7.51267 273.711 7.79C273.434 8.06733 273.105 8.206 272.723 8.206ZM283.415 13.068C283.328 13.068 282.245 12.9987 280.165 12.86C280.165 13.0853 280.13 13.9433 280.061 15.434C279.992 16.9247 279.957 18.034 279.957 18.762C279.957 19.4727 280.113 20.0707 280.425 20.556C280.754 21.024 280.919 21.4487 280.919 21.83C280.919 22.2113 280.789 22.532 280.529 22.792C280.269 23.0347 279.974 23.156 279.645 23.156C278.778 23.156 278.345 22.4713 278.345 21.102L278.241 15.824C278.241 14.7493 278.215 13.7873 278.163 12.938H277.539C277.296 12.938 277.097 12.8687 276.941 12.73C276.785 12.574 276.707 12.366 276.707 12.106C276.707 11.846 276.785 11.6467 276.941 11.508C277.097 11.352 277.296 11.274 277.539 11.274H278.085C278.05 10.3727 278.033 9.688 278.033 9.22C278.033 8.73467 278.146 8.35333 278.371 8.076C278.614 7.78133 278.9 7.634 279.229 7.634C279.558 7.634 279.827 7.77267 280.035 8.05C280.243 8.31 280.347 8.74333 280.347 9.35C280.347 9.95667 280.321 10.624 280.269 11.352L283.415 11.144C284.091 11.144 284.429 11.4647 284.429 12.106C284.429 12.7473 284.091 13.068 283.415 13.068ZM292.175 13.068C292.088 13.068 291.005 12.9987 288.925 12.86C288.925 13.0853 288.89 13.9433 288.821 15.434C288.751 16.9247 288.717 18.034 288.717 18.762C288.717 19.4727 288.873 20.0707 289.185 20.556C289.514 21.024 289.679 21.4487 289.679 21.83C289.679 22.2113 289.549 22.532 289.289 22.792C289.029 23.0347 288.734 23.156 288.405 23.156C287.538 23.156 287.105 22.4713 287.105 21.102L287.001 15.824C287.001 14.7493 286.975 13.7873 286.923 12.938H286.299C286.056 12.938 285.857 12.8687 285.701 12.73C285.545 12.574 285.467 12.366 285.467 12.106C285.467 11.846 285.545 11.6467 285.701 11.508C285.857 11.352 286.056 11.274 286.299 11.274H286.845C286.81 10.3727 286.793 9.688 286.793 9.22C286.793 8.73467 286.905 8.35333 287.131 8.076C287.373 7.78133 287.659 7.634 287.989 7.634C288.318 7.634 288.587 7.77267 288.795 8.05C289.003 8.31 289.107 8.74333 289.107 9.35C289.107 9.95667 289.081 10.624 289.029 11.352L292.175 11.144C292.851 11.144 293.189 11.4647 293.189 12.106C293.189 12.7473 292.851 13.068 292.175 13.068ZM295.422 21.102C295.422 14.3593 295.379 10.3293 295.292 9.012C295.136 6.62 295.058 5.22467 295.058 4.826C295.058 4.42733 295.171 4.10667 295.396 3.864C295.639 3.62133 295.925 3.5 296.254 3.5C296.584 3.5 296.852 3.62133 297.06 3.864C297.268 4.10667 297.372 4.41 297.372 4.774C297.372 5.866 297.329 7.348 297.242 9.22C297.069 13.6227 296.982 16.8987 296.982 19.048C296.982 19.568 297.147 20.0707 297.476 20.556C297.823 21.024 297.996 21.4487 297.996 21.83C297.996 22.2113 297.866 22.532 297.606 22.792C297.346 23.0347 297.052 23.156 296.722 23.156C295.856 23.156 295.422 22.4713 295.422 21.102ZM305.48 17.826L302.386 17.566C302.092 17.566 301.858 17.592 301.684 17.644C301.788 18.632 302.204 19.4553 302.932 20.114C303.678 20.7727 304.553 21.102 305.558 21.102C306.529 21.102 307.404 20.7467 308.184 20.036C308.462 19.7933 308.67 19.672 308.808 19.672C308.947 19.672 309.068 19.724 309.172 19.828C309.276 19.932 309.328 20.0447 309.328 20.166C309.328 20.6687 308.834 21.2927 307.846 22.038C306.876 22.7833 305.766 23.156 304.518 23.156C303.288 23.156 302.213 22.6533 301.294 21.648C300.393 20.6427 299.942 19.3947 299.942 17.904C299.942 15.9973 300.662 14.394 302.1 13.094C303.539 11.794 305.125 11.144 306.858 11.144C307.586 11.144 308.176 11.274 308.626 11.534C309.094 11.7767 309.328 12.0973 309.328 12.496C309.328 12.8773 309.207 13.1893 308.964 13.432C308.739 13.6747 308.514 13.796 308.288 13.796C308.063 13.796 307.673 13.692 307.118 13.484C306.581 13.276 306.061 13.172 305.558 13.172C304.622 13.172 303.808 13.458 303.114 14.03C302.438 14.5847 301.988 15.278 301.762 16.11L305.35 15.902C306.148 15.902 306.546 16.214 306.546 16.838C306.546 17.4967 306.191 17.826 305.48 17.826Z" fill="black"/>
<path d="M184.971 66.9858C182.315 76.0867 177.177 88.4238 167.001 89.9808C163.936 90.4497 161.551 90.6941 158.5 90.0317C156.839 89.671 153.989 89.1031 153.001 87.6237" stroke="black" stroke-width="2" stroke-linecap="round" stroke-linejoin="round"/>
<path d="M185.429 65.6635C182.113 66.8182 180.005 68.8571 177.298 70.4512" stroke="black" stroke-width="2" stroke-linecap="round" stroke-linejoin="round"/>
<path d="M185.364 65.8892C187.526 68.6371 188.723 71.9856 190.762 74.7099" stroke="black" stroke-width="2" stroke-linecap="round" stroke-linejoin="round"/>
<path d="M46.2924 80.472C46.5084 80.472 46.6164 80.556 46.6164 80.724C46.6164 80.868 46.4784 80.988 46.2024 81.084C46.0824 81.132 45.9504 81.18 45.8064 81.228C45.6624 81.264 45.5184 81.318 45.3744 81.39C44.0184 82.098 43.2984 83.424 43.2144 85.368C43.1904 85.896 43.1784 86.322 43.1784 86.646C43.1784 86.97 43.1904 87.24 43.2144 87.456C43.2504 87.648 43.3164 87.9 43.4124 88.212C43.6524 88.932 44.0364 89.67 44.5644 90.426C45.1044 91.17 45.5124 91.626 45.7884 91.794C46.0644 91.962 46.2984 92.07 46.4904 92.118C46.6824 92.154 46.8264 92.178 46.9224 92.19C47.0184 92.202 47.0664 92.304 47.0664 92.496C47.0664 92.832 46.7124 93 46.0044 93C45.2364 93 44.4024 92.676 43.5024 92.028C42.0984 90.996 41.1324 89.736 40.6044 88.248C40.4364 87.768 40.3464 87.33 40.3344 86.934C40.3344 86.526 40.3824 86.1 40.4784 85.656C40.5864 85.2 40.7424 84.738 40.9464 84.27C41.1504 83.802 41.4144 83.34 41.7384 82.884C42.0624 82.428 42.4404 82.02 42.8724 81.66C43.8324 80.868 44.9724 80.472 46.2924 80.472ZM49.4854 81.858L49.4674 82.074C49.4554 82.422 49.6054 82.722 49.9174 82.974L50.2414 83.244C50.3374 83.316 50.3854 83.412 50.3854 83.532C50.3854 83.652 50.2654 83.712 50.0254 83.712C49.7854 83.712 49.5454 83.652 49.3054 83.532C49.0654 83.388 48.8374 83.232 48.6214 83.064C48.2494 82.776 47.8954 82.428 47.5594 82.02C47.4634 81.9 47.4154 81.66 47.4154 81.3C47.4154 80.94 47.5114 80.64 47.7034 80.4C47.9074 80.148 48.2014 80.022 48.5854 80.022C48.8614 80.022 49.0894 80.088 49.2694 80.22C49.6054 80.448 49.7734 80.706 49.7734 80.994L49.4854 81.858ZM53.3374 81.858L53.3194 82.074C53.3074 82.422 53.4574 82.722 53.7694 82.974L54.0934 83.244C54.1894 83.316 54.2374 83.412 54.2374 83.532C54.2374 83.652 54.1174 83.712 53.8774 83.712C53.6374 83.712 53.3974 83.652 53.1574 83.532C52.9294 83.388 52.7074 83.232 52.4914 83.064C52.1194 82.764 51.7654 82.416 51.4294 82.02C51.3334 81.9 51.2854 81.66 51.2854 81.3C51.2854 80.94 51.3814 80.64 51.5734 80.4C51.7654 80.148 52.0594 80.022 52.4554 80.022C52.7194 80.022 52.9414 80.088 53.1214 80.22C53.4574 80.448 53.6254 80.706 53.6254 80.994L53.3374 81.858ZM58.045 92.982C57.601 92.718 57.379 92.568 57.379 92.532V92.424C56.875 91.428 56.539 90.648 56.371 90.084C56.179 89.472 55.945 88.518 55.669 87.222C55.609 86.994 55.495 86.826 55.327 86.718C55.159 86.598 54.985 86.496 54.805 86.412C54.625 86.316 54.463 86.214 54.319 86.106C54.175 85.986 54.103 85.848 54.103 85.692C54.103 85.524 54.151 85.386 54.247 85.278C54.343 85.17 54.463 85.104 54.607 85.08C54.763 85.044 54.973 85.014 55.237 84.99C55.513 84.954 55.777 84.924 56.029 84.9C56.533 84.852 56.875 84.828 57.055 84.828C57.559 84.828 57.925 85.062 58.153 85.53C58.381 86.082 58.603 86.778 58.819 87.618C59.287 89.502 59.617 90.612 59.809 90.948C59.833 90.996 59.845 91.032 59.845 91.056C60.001 90.984 60.187 90.528 60.403 89.688C60.451 89.496 60.493 89.352 60.529 89.256C60.673 88.86 60.811 88.338 60.943 87.69C61.087 87.042 61.171 86.652 61.195 86.52C61.231 86.388 61.249 86.238 61.249 86.07C61.249 85.89 61.255 85.728 61.267 85.584C61.291 85.44 61.327 85.326 61.375 85.242C61.435 85.146 61.537 85.098 61.681 85.098C62.137 85.098 62.617 85.134 63.121 85.206C63.289 85.302 63.403 85.464 63.463 85.692C63.523 85.908 63.565 86.082 63.589 86.214C63.613 86.346 63.643 86.466 63.679 86.574L63.877 87.168L64.183 88.068C64.459 88.872 64.627 89.37 64.687 89.562C65.203 90.774 65.545 91.434 65.713 91.542C66.613 89.202 67.063 87.546 67.063 86.574C67.063 86.418 67.051 86.28 67.027 86.16C66.139 86.16 65.695 85.902 65.695 85.386C65.695 85.098 65.965 84.954 66.505 84.954C67.057 84.954 67.489 84.96 67.801 84.972C68.113 84.972 68.353 84.99 68.521 85.026C68.833 85.086 68.989 85.224 68.989 85.44C68.989 85.704 68.809 85.878 68.449 85.962C68.353 85.986 68.269 86.022 68.197 86.07C68.197 86.25 67.915 87.282 67.351 89.166L66.397 92.424C66.313 92.712 66.205 92.922 66.073 93.054C65.953 93.186 65.701 93.252 65.317 93.252C64.465 93.252 63.847 92.982 63.463 92.442C63.067 91.914 62.503 90.924 61.771 89.472C61.639 89.208 61.561 89.064 61.537 89.04C61.369 89.292 61.165 89.832 60.925 90.66C60.685 91.476 60.541 91.956 60.493 92.1L60.421 92.298V92.856C60.313 92.904 60.229 92.952 60.169 93C60.085 93.072 59.935 93.108 59.719 93.108C59.695 93.108 59.665 93.108 59.629 93.108C59.425 93.108 59.173 93.084 58.873 93.036C58.657 93 58.441 92.982 58.225 92.982C58.165 92.982 58.105 92.982 58.045 92.982ZM69.8268 91.524C69.5868 91.176 69.4488 90.81 69.4128 90.426C69.3768 90.042 69.3588 89.598 69.3588 89.094C69.3588 88.59 69.5328 88.104 69.8808 87.636C70.2288 87.156 70.6728 86.748 71.2128 86.412C72.3408 85.692 73.5528 85.332 74.8488 85.332C75.9648 85.332 76.9068 85.89 77.6748 87.006C78.0108 87.486 78.2628 88.014 78.4308 88.59C78.6108 89.154 78.7008 89.73 78.7008 90.318C78.7008 90.906 78.5208 91.476 78.1608 92.028C77.6808 92.772 76.9968 93.252 76.1088 93.468C75.8208 93.54 75.4488 93.606 74.9928 93.666C74.5488 93.738 74.2848 93.774 74.2008 93.774C73.3128 93.774 72.5028 93.612 71.7708 93.288C71.0388 92.964 70.3908 92.376 69.8268 91.524ZM72.8148 89.706C72.8148 89.982 72.8268 90.282 72.8508 90.606C72.8868 90.93 72.9468 91.242 73.0308 91.542C73.2348 92.274 73.5288 92.64 73.9128 92.64C74.3328 92.64 74.6568 92.496 74.8848 92.208C75.1128 91.92 75.2808 91.572 75.3888 91.164C75.5328 90.612 75.6048 89.748 75.6048 88.572C75.6048 88.068 75.5448 87.63 75.4248 87.258C75.1368 86.634 74.9208 86.286 74.7768 86.214C74.7648 86.214 74.7528 86.214 74.7408 86.214C74.0088 86.214 73.4868 86.64 73.1748 87.492C72.9348 88.116 72.8148 88.854 72.8148 89.706ZM80.2682 91.524C80.0282 91.176 79.8902 90.81 79.8542 90.426C79.8182 90.042 79.8002 89.598 79.8002 89.094C79.8002 88.59 79.9742 88.104 80.3222 87.636C80.6702 87.156 81.1142 86.748 81.6542 86.412C82.7822 85.692 83.9942 85.332 85.2902 85.332C86.4062 85.332 87.3482 85.89 88.1162 87.006C88.4522 87.486 88.7042 88.014 88.8722 88.59C89.0522 89.154 89.1422 89.73 89.1422 90.318C89.1422 90.906 88.9622 91.476 88.6022 92.028C88.1222 92.772 87.4382 93.252 86.5502 93.468C86.2622 93.54 85.8902 93.606 85.4342 93.666C84.9902 93.738 84.7262 93.774 84.6422 93.774C83.7542 93.774 82.9442 93.612 82.2122 93.288C81.4802 92.964 80.8322 92.376 80.2682 91.524ZM83.2562 89.706C83.2562 89.982 83.2682 90.282 83.2922 90.606C83.3282 90.93 83.3882 91.242 83.4722 91.542C83.6762 92.274 83.9702 92.64 84.3542 92.64C84.7742 92.64 85.0982 92.496 85.3262 92.208C85.5542 91.92 85.7222 91.572 85.8302 91.164C85.9742 90.612 86.0462 89.748 86.0462 88.572C86.0462 88.068 85.9862 87.63 85.8662 87.258C85.5782 86.634 85.3622 86.286 85.2182 86.214C85.2062 86.214 85.1942 86.214 85.1822 86.214C84.4502 86.214 83.9282 86.64 83.6162 87.492C83.3762 88.116 83.2562 88.854 83.2562 89.706ZM97.3876 88.824C95.9476 88.92 94.8316 88.968 94.0396 88.968H91.7536C91.0336 88.968 90.6736 88.83 90.6736 88.554C90.6736 88.35 90.8296 88.176 91.1416 88.032L94.6336 88.14L97.2256 88.032C97.3936 88.032 97.5376 88.05 97.6576 88.086C97.7776 88.122 97.8376 88.218 97.8376 88.374C97.8376 88.674 97.6876 88.824 97.3876 88.824ZM106.671 86.466C106.167 86.466 105.915 86.34 105.915 86.088C105.915 86.076 105.939 86.022 105.987 85.926C106.035 85.818 106.083 85.758 106.131 85.746L109.623 85.53C109.623 85.53 109.629 85.53 109.641 85.53C109.677 85.53 109.755 85.584 109.875 85.692L110.073 85.872C110.073 86.136 109.737 86.28 109.065 86.304C108.897 86.304 108.747 86.31 108.615 86.322C108.459 87.39 108.207 88.416 107.859 89.4L107.013 91.848C106.785 92.496 106.587 93.012 106.419 93.396C106.263 93.78 106.083 94.17 105.879 94.566C105.675 94.974 105.453 95.376 105.213 95.772C104.973 96.168 104.733 96.522 104.493 96.834C103.941 97.53 103.455 97.878 103.035 97.878C103.023 97.878 103.017 97.878 103.017 97.878C102.261 97.878 101.433 97.356 100.533 96.312C100.053 95.76 99.7294 95.316 99.5614 94.98C99.3934 94.644 99.3094 94.422 99.3094 94.314C99.3094 94.206 99.3454 94.116 99.4174 94.044C99.4894 93.984 99.5794 93.936 99.6874 93.9C99.8314 93.852 100.035 93.828 100.299 93.828C100.563 93.828 100.773 93.84 100.929 93.864C101.085 93.888 101.229 93.96 101.361 94.08C101.661 94.368 101.811 94.962 101.811 95.862C102.063 96.186 102.243 96.402 102.351 96.51C102.591 96.726 102.837 96.834 103.089 96.834C103.365 96.822 103.719 96.456 104.151 95.736C104.571 95.016 104.781 94.428 104.781 93.972C104.781 93.528 104.709 93.144 104.565 92.82C104.433 92.484 104.259 92.154 104.043 91.83C103.839 91.506 103.611 91.182 103.359 90.858C103.119 90.522 102.849 90.114 102.549 89.634C102.261 89.142 101.907 88.662 101.487 88.194C101.079 87.726 100.563 87.36 99.9394 87.096C99.8554 87.06 99.7534 87.03 99.6334 87.006C99.5014 86.994 99.3754 86.964 99.2554 86.916C98.9554 86.808 98.8054 86.652 98.8054 86.448C98.8054 86.232 98.8894 86.076 99.0574 85.98C99.2254 85.872 99.4414 85.794 99.7054 85.746C99.9694 85.686 100.263 85.644 100.587 85.62C100.911 85.596 101.151 85.578 101.307 85.566C101.463 85.542 101.571 85.53 101.631 85.53C101.691 85.53 101.763 85.536 101.847 85.548C101.943 85.56 102.039 85.572 102.135 85.584C102.243 85.596 102.363 85.632 102.495 85.692C102.627 85.74 102.801 85.872 103.017 86.088L103.629 86.844C104.013 87.348 104.361 87.846 104.673 88.338L105.789 90.156C105.957 90.372 106.149 90.702 106.365 91.146H106.473C106.521 91.038 106.659 90.612 106.887 89.868C107.115 89.124 107.391 88.05 107.715 86.646L107.697 86.376L106.671 86.466ZM115.647 87.384C115.647 86.436 115.227 85.962 114.387 85.962C114.027 85.962 113.775 86.1 113.631 86.376C113.559 86.532 113.517 86.706 113.505 86.898C113.505 87.078 113.529 87.192 113.577 87.24C113.637 87.288 113.667 87.372 113.667 87.492C113.667 87.708 113.541 87.852 113.289 87.924C113.133 87.972 112.905 87.996 112.605 87.996C112.389 87.996 112.119 88.05 111.795 88.158C111.471 88.266 111.285 88.32 111.237 88.32C111.129 88.32 111.045 88.254 110.985 88.122C110.937 87.99 110.913 87.864 110.913 87.744C110.913 87.528 111.051 87.192 111.327 86.736C111.615 86.268 111.861 85.956 112.065 85.8C112.437 85.524 112.779 85.302 113.091 85.134C113.403 84.954 113.727 84.864 114.063 84.864C115.791 84.864 116.907 85.326 117.411 86.25C117.699 86.778 117.843 87.414 117.843 88.158C117.843 88.482 117.801 88.812 117.717 89.148C117.633 89.484 117.591 89.808 117.591 90.12C117.591 90.624 117.693 91.092 117.897 91.524C118.161 91.896 118.389 92.112 118.581 92.172C118.653 92.172 118.719 92.148 118.779 92.1C118.851 92.052 118.917 92.028 118.977 92.028C119.229 92.028 119.355 92.154 119.355 92.406C119.355 92.646 119.247 92.856 119.031 93.036C118.599 93.396 118.185 93.576 117.789 93.576C117.393 93.576 117.111 93.552 116.943 93.504C116.775 93.456 116.625 93.39 116.493 93.306C116.361 93.222 116.247 93.132 116.151 93.036L115.863 92.766L115.593 92.496C115.521 92.412 115.479 92.37 115.467 92.37C114.651 93.354 113.619 93.846 112.371 93.846C111.663 93.846 111.081 93.6 110.625 93.108C110.181 92.616 109.959 92.154 109.959 91.722C109.959 90.906 110.367 90.246 111.183 89.742C112.023 89.238 113.295 88.866 114.999 88.626C115.167 88.614 115.299 88.572 115.395 88.5C115.563 88.38 115.647 88.008 115.647 87.384ZM113.145 90.246C113.013 90.462 112.947 90.666 112.947 90.858C112.947 91.314 112.989 91.734 113.073 92.118C113.157 92.502 113.301 92.706 113.505 92.73C113.805 92.73 114.063 92.646 114.279 92.478C114.663 92.178 114.867 91.878 114.891 91.578L115.107 89.328C114.171 89.328 113.517 89.634 113.145 90.246ZM120.238 93.36C119.902 93.312 119.734 93.102 119.734 92.73C119.758 92.562 119.806 92.46 119.878 92.424C119.95 92.388 120.046 92.37 120.166 92.37L120.31 92.388C120.646 92.388 120.862 92.244 120.958 91.956C121.03 91.776 121.066 91.464 121.066 91.02C121.066 90.984 121.06 90.948 121.048 90.912C121.048 90.876 121.048 90.84 121.048 90.804C121.048 90.324 121.09 89.784 121.174 89.184C121.258 88.56 121.3 87.99 121.3 87.474C121.3 86.946 121.282 86.484 121.246 86.088L120.418 86.124H120.238C120.13 86.1 120.01 86.064 119.878 86.016C119.746 85.968 119.68 85.896 119.68 85.8C119.68 85.704 119.716 85.614 119.788 85.53C119.872 85.446 119.926 85.38 119.95 85.332C120.022 85.344 120.088 85.35 120.148 85.35H120.544C120.748 85.35 120.922 85.344 121.066 85.332C121.21 85.32 121.318 85.314 121.39 85.314C121.474 85.302 121.552 85.29 121.624 85.278C121.708 85.266 121.87 85.26 122.11 85.26C122.458 85.26 122.926 85.128 123.514 84.864C123.658 84.888 123.778 84.936 123.874 85.008C123.982 85.068 124.06 85.11 124.108 85.134L124.018 86.016C124.042 86.04 124.078 86.052 124.126 86.052C124.222 86.052 124.402 85.956 124.666 85.764C125.23 85.512 125.68 85.326 126.016 85.206C126.352 85.074 126.616 85.008 126.808 85.008C127 85.008 127.186 85.038 127.366 85.098C127.558 85.158 127.75 85.248 127.942 85.368C128.386 85.632 128.692 85.956 128.86 86.34C129.136 87.024 129.274 87.594 129.274 88.05C129.274 88.242 129.25 88.494 129.202 88.806C129.106 89.394 129.052 89.832 129.04 90.12C129.04 90.564 129.07 90.882 129.13 91.074C129.178 91.266 129.226 91.434 129.274 91.578C129.382 91.95 129.472 92.148 129.544 92.172C129.604 92.232 129.682 92.274 129.778 92.298C129.874 92.31 129.97 92.328 130.066 92.352C130.282 92.412 130.39 92.526 130.39 92.694C130.39 92.862 130.102 92.994 129.526 93.09C129.19 93.15 128.89 93.18 128.626 93.18C128.086 93.18 127.666 93.072 127.366 92.856C126.514 92.232 126.088 90.96 126.088 89.04C126.088 87.432 125.776 86.628 125.152 86.628C124.828 86.628 124.534 86.784 124.27 87.096C124.018 87.396 123.88 87.684 123.856 87.96L123.496 91.524C123.496 91.944 123.616 92.238 123.856 92.406C124.096 92.562 124.414 92.658 124.81 92.694C124.894 92.706 124.936 92.766 124.936 92.874C124.936 93.102 124.72 93.216 124.288 93.216C124.132 93.216 123.946 93.186 123.73 93.126C123.298 93.006 122.89 92.946 122.506 92.946C122.134 92.946 121.378 93.084 120.238 93.36ZM131.111 81.858L130.823 80.994C130.823 80.586 131.081 80.286 131.597 80.094C131.729 80.046 131.861 80.022 131.993 80.022C132.389 80.022 132.683 80.148 132.875 80.4C133.079 80.64 133.181 80.964 133.181 81.372C133.181 81.684 133.127 81.906 133.019 82.038C132.911 82.17 132.761 82.332 132.569 82.524C132.377 82.716 132.173 82.896 131.957 83.064C131.417 83.496 130.991 83.712 130.679 83.712C130.367 83.712 130.211 83.652 130.211 83.532C130.211 83.412 130.259 83.316 130.355 83.244C130.439 83.16 130.541 83.07 130.661 82.974C130.973 82.722 131.129 82.422 131.129 82.074L131.111 81.858ZM134.981 81.858L134.693 80.994C134.693 80.694 134.819 80.46 135.071 80.292C135.335 80.112 135.629 80.022 135.953 80.022C136.277 80.022 136.535 80.148 136.727 80.4C136.931 80.64 137.033 80.964 137.033 81.372C137.033 81.684 136.979 81.906 136.871 82.038C136.763 82.17 136.613 82.332 136.421 82.524C136.229 82.716 136.025 82.896 135.809 83.064C135.269 83.496 134.843 83.712 134.531 83.712C134.231 83.712 134.081 83.652 134.081 83.532C134.081 83.412 134.129 83.316 134.225 83.244L134.531 82.974C134.639 82.878 134.741 82.764 134.837 82.632C134.933 82.5 134.981 82.314 134.981 82.074V81.858ZM137.356 92.496C137.356 92.304 137.404 92.202 137.5 92.19C137.596 92.178 137.734 92.154 137.914 92.118C138.106 92.07 138.34 91.962 138.616 91.794C138.904 91.626 139.24 91.278 139.624 90.75C140.008 90.21 140.308 89.73 140.524 89.31C140.752 88.89 140.914 88.524 141.01 88.212C141.154 87.756 141.226 87.306 141.226 86.862C141.238 86.406 141.232 85.914 141.208 85.386C141.184 84.846 141.1 84.324 140.956 83.82C140.632 82.704 139.996 81.894 139.048 81.39C138.904 81.318 138.76 81.264 138.616 81.228C138.472 81.18 138.34 81.132 138.22 81.084C137.944 80.988 137.806 80.862 137.806 80.706C137.806 80.55 137.914 80.472 138.13 80.472C140.026 80.472 141.544 81.276 142.684 82.884C143.296 83.748 143.71 84.672 143.926 85.656C144.022 86.112 144.07 86.538 144.07 86.934C144.082 87.33 143.998 87.774 143.818 88.266C143.65 88.746 143.422 89.214 143.134 89.67C142.846 90.126 142.51 90.558 142.126 90.966C141.742 91.362 141.34 91.716 140.92 92.028C140.02 92.676 139.198 93 138.454 93C137.722 93 137.356 92.832 137.356 92.496Z" fill="black"/>
<path d="M15.3439 70.7714C11.3354 70.4829 9.2096 69.6371 9.5936 64.2739C9.79215 61.5007 14.9498 59.081 14.8626 61.2169C14.7612 63.6994 10.802 65.0525 9.45653 63.4754C7.61836 61.3207 8.1018 57.981 8.31122 55.056" stroke="#BFE88D" stroke-width="2" stroke-linecap="round" stroke-linejoin="round"/>
<path d="M30.6285 67.682C31.6081 68.8534 31.6054 69.9686 32.2229 71.2221" stroke="#F7B2B3" stroke-width="2" stroke-linecap="round" stroke-linejoin="round"/>
<path d="M43.0066 59.1003C42.7345 59.6721 40.6142 63.0099 41.1272 63.7427" stroke="#BFE88D" stroke-width="2" stroke-linecap="round" stroke-linejoin="round"/>
<path d="M18.2355 90.2529C19.2178 90.3236 20.2002 90.3943 21.1826 90.465" stroke="#F7B2B3" stroke-width="2" stroke-linecap="round" stroke-linejoin="round"/>
<path d="M30.9856 97.041C30.3554 97.4601 29.5783 97.7387 29.2047 98.4054" stroke="#FCB97B" stroke-width="2" stroke-linecap="round" stroke-linejoin="round"/>
<path d="M35.0898 102.411C35.033 103.203 34.9763 103.995 34.9196 104.788" stroke="#FCB97B" stroke-width="2" stroke-linecap="round" stroke-linejoin="round"/>
<path d="M21.4775 100.536C21.1696 101.22 20.8923 102.521 20.1909 102.832" stroke="#BFE88D" stroke-width="2" stroke-linecap="round" stroke-linejoin="round"/>
<path d="M52.8257 106.133C53.6828 106.614 54.5554 107.056 55.3109 107.705" stroke="#BFE88D" stroke-width="2" stroke-linecap="round" stroke-linejoin="round"/>
<path d="M44.1461 98.9817C44.2741 99.9103 44.453 100.811 44.7776 101.654" stroke="#ABD2FA" stroke-width="2" stroke-linecap="round" stroke-linejoin="round"/>
<path d="M57.2859 70.5971C57.5761 69.5873 58.2492 68.6342 58.3227 67.6074" stroke="#ABD2FA" stroke-width="2" stroke-linecap="round" stroke-linejoin="round"/>
<path d="M28.4973 53.6935C28.9093 54.0737 29.3214 54.4539 29.7334 54.8341" stroke="#FCB97B" stroke-width="2" stroke-linecap="round" stroke-linejoin="round"/>
<path d="M49.1307 65.9762C49.1132 66.2215 49.0021 67.7726 48.9984 67.8243" stroke="#F7B2B3" stroke-width="2" stroke-linecap="round" stroke-linejoin="round"/>
<path d="M36.9411 73.4011C37.2042 74.2266 37.4698 74.7568 37.8918 75.4108" stroke="#BFE88D" stroke-width="2" stroke-linecap="round" stroke-linejoin="round"/>
<path d="M25.8302 75.7075C26.2865 76.1286 26.7428 76.5497 27.1992 76.9708" stroke="#FCB97B" stroke-width="2" stroke-linecap="round" stroke-linejoin="round"/>
<path d="M26.2554 85.0562C27.2568 85.1283 27.9853 85.1334 28.7687 85.6253" stroke="#ABD2FA" stroke-width="2" stroke-linecap="round" stroke-linejoin="round"/>
<path d="M8.9567 95.8606C8.12754 95.8009 6.16626 96.3592 5.58944 95.0962C5.11517 94.0578 5.52036 93.054 6.24254 93.0551C6.97204 93.0562 8.34159 92.7196 8.75043 93.8736C10.1709 97.8832 2.70692 102.719 1.34352 102.621" stroke="#ABD2FA" stroke-width="2" stroke-linecap="round" stroke-linejoin="round"/>
<path d="M7.89563 96.2892C8.95945 96.3658 10.0233 96.4424 11.0871 96.5189" stroke="#ABD2FA" stroke-width="2" stroke-linecap="round" stroke-linejoin="round"/>
<path d="M18.3384 77.5592C18.5866 77.9535 18.8385 78.316 19.1872 78.603" stroke="#ABD2FA" stroke-width="2" stroke-linecap="round" stroke-linejoin="round"/>
<path d="M8.59966 80.2978C9.06407 80.3312 9.57711 80.4842 9.98946 80.234" stroke="#BFE88D" stroke-width="2" stroke-linecap="round" stroke-linejoin="round"/>
<path d="M24.2186 65.9289C24.3511 66.1487 24.4835 66.3684 24.616 66.5882" stroke="#ABD2FA" stroke-width="2" stroke-linecap="round" stroke-linejoin="round"/>
<path d="M26.9471 110.212C26.3618 110.817 25.8241 111.428 25.7518 112.279" stroke="#F7B2B3" stroke-width="2" stroke-linecap="round" stroke-linejoin="round"/>
<path d="M43.4456 113.246C43.7924 113.865 44.1482 114.49 44.3644 115.166" stroke="#FCB97B" stroke-width="2" stroke-linecap="round" stroke-linejoin="round"/>
<path d="M63.7828 57.6056C64.4664 56.6926 65.1768 55.7619 65.8049 54.8288" stroke="#FCB97B" stroke-width="2" stroke-linecap="round" stroke-linejoin="round"/>
</svg>
