<?xml version="1.0" encoding="utf-8"?>
<!-- Generator: Adobe Illustrator 24.1.1, SVG Export Plug-In . SVG Version: 6.00 Build 0)  -->
<svg version="1.1" id="Layer_1" xmlns="http://www.w3.org/2000/svg" xmlns:xlink="http://www.w3.org/1999/xlink" x="0px" y="0px"
	 viewBox="0 0 512 512" style="enable-background:new 0 0 512 512;" xml:space="preserve">
<g>
	<path d="M47,299.7c-1.2,5.8-1.9,11.9-1.9,18C45.1,391.2,139,451,254.4,451s209.3-59.8,209.3-133.3c0-5.8-0.6-11.6-1.7-17.2
		l-0.3-0.7l-0.6-3.5c-6.4-25.1-23.8-47.8-49-66.3l-2.7-1.4l-1.4-1.4c-38.3-26.3-92.9-42.8-153.5-42.8c-60.1,0-114.2,16.2-152.5,42.1
		l-1,1l-2.8,1.6c-25.7,18.4-43.5,41.3-50.2,66.7l-0.8,3.7L47,299.7z M255.5,415.7c-38.2,0-65.2-8.3-82.4-25.5
		c-3.7-3.7-3.7-9.7,0-13.5c3.7-3.5,9.8-3.5,13.6,0c13.4,13.4,35.9,20.2,68.8,20.2c32.9,0,55.2-6.4,68.7-19.8c3.5-3.5,9.6-3.5,13.4,0
		c3.5,3.8,3.5,9.9,0,13.7c-17.2,17.2-44,25.6-82.3,25.6L255.5,415.7z M178.6,254.2c-19.5,0-35.7,16.3-35.7,35.7s16.3,35.2,35.7,35.2
		c19.5,0,35.2-15.7,35.2-35.2S198,254.2,178.6,254.2z M332.9,254.2c-19.5,0-35.8,16.3-35.8,35.7s16.3,35.2,35.8,35.2
		c19.5,0,35.2-15.7,35.2-35.2S352.3,254.2,332.9,254.2z M429.9,220.1c22.1,17.8,38.4,38.9,46.7,62c9.6-7.2,15.3-18.4,15.3-30.9
		c0-21.4-17.3-38.8-38.8-38.8C444.7,212.5,436.6,215.2,429.9,220.1L429.9,220.1z M57.8,212.5c-21.4,0-38.7,17.3-38.7,38.7
		c0,11.6,5.1,22.3,13.7,29.7c8.5-23.1,25-43.8,47.2-61.4C73.6,215.1,65.9,212.5,57.8,212.5L57.8,212.5z M254.5,470.2
		c-126,0-228.5-68.4-228.5-152.4c0-5.8,0.5-11.6,1.4-17.2C10.5,290.1,0,271.5,0,251.2c0-31.9,26.2-57.9,58.2-57.9
		c14.3,0,27.7,5.2,38.3,14.6c39.6-25.4,92.9-41.4,151.7-42.5l38.7-117.8l8.7,2l0.3,0.1l90.1,21.2c7.3-17,24.3-29,44-29
		c26.3,0,47.7,21.4,47.7,47.7c0,26.2-21.4,47.7-47.7,47.7c-26.2,0-47.5-21.4-47.5-47.6L300.2,70l-31.3,95.5
		c56.6,2.2,107.7,18.2,146,43.2c10.6-9.9,24.4-15.3,39.1-15.3c32,0,58,25.8,58,57.8c0,21-11.5,40.2-29.4,50.4
		c0.7,5.4,1.3,10.6,1.3,16c-0.3,84-102.6,152.3-228.8,152.3L254.5,470.2z M428.9,60.9c-15.7,0-28.6,12.7-28.6,28.5
		s12.8,28.6,28.6,28.6c15.7,0,28.4-12.7,28.4-28.4s-12.7-28.4-28.7-28.4L428.9,60.9z"/>
</g>
</svg>
