<?xml version="1.0" encoding="utf-8"?>
<!-- Svg Vector Icons : http://www.onlinewebfonts.com/icon -->
<!DOCTYPE svg PUBLIC "-//W3C//DTD SVG 1.1//EN" "http://www.w3.org/Graphics/SVG/1.1/DTD/svg11.dtd">
<svg version="1.1" xmlns="http://www.w3.org/2000/svg" xmlns:xlink="http://www.w3.org/1999/xlink" x="0px" y="0px" viewBox="0 0 1000 1000" enable-background="new 0 0 1000 1000" xml:space="preserve">
<metadata> Svg Vector Icons : http://www.onlinewebfonts.com/icon </metadata>
<g><path d="M990,195.8c-36.1,16-74.8,26.8-115.5,31.8c41.5-24.9,73.5-64.4,88.5-111.3c-38.8,23.1-81.8,39.9-127.7,48.8c-36.8-39.2-89.3-63.8-146.8-63.8c-111.1,0-201,90.1-201,201.2c0,15.8,1.7,31.2,5.2,45.9C325.5,340.1,177,259.9,77.9,138c-17.2,29.7-27.2,64.4-27.2,101.1c0,69.8,35.5,131.5,89.5,167.6c-32.8-0.8-64-10-91-25.1c0,0.8,0,1.7,0,2.5c0,97.6,69.4,178.8,161.4,197.3c-16.8,4.6-34.7,7.1-53,7.1c-12.9,0-25.5-1.2-37.8-3.7c25.5,80,99.9,138.1,187.9,139.8c-68.7,54-155.5,86.2-249.8,86.2c-16.2,0-32.2-1-48-2.9c88.7,57.7,194.4,91,307.8,91c370.1,0,572.6-306.7,572.6-572.8c0-8.7-0.2-17.4-0.6-26C928.7,271.6,963,236.3,990,195.8z M870,273l-14.5,10.6l0.8,17.9c0.4,7.9,0.6,16.2,0.6,24.5c0,62.7-12.3,128.3-35.3,190c-24.3,64.8-59.2,123.4-103.8,174c-47.8,54.2-104.3,96.6-168.4,126.3c-70.2,32.6-148.1,49-231.6,49c-60,0-119.2-10-175.5-29.5c20.6-3.9,40.7-9.6,60.4-16.4c45.1-15.8,87-38.8,124.8-68.5l73.3-57.5l-93.2-1.7c-54.2-1-103.2-27.8-133.5-70.4c15.2-1,30.1-3.7,44.6-7.7l126.1-42L216.6,549C155.2,536.8,107,491.1,89.3,433.1c16.2,4.2,32,5.8,49.6,6.9c0,0,66,2.9,115.9-0.2c-27-12.9-96.4-60.6-96.4-60.6c-46.7-31.4-74.8-83.5-74.8-140c0-13.3,1.7-26.6,4.6-39.5c45.5,46.5,97.6,85.4,156,115.3c76.8,39.7,159.7,61.9,246.3,66.2l44,2.3l-10-43c-2.9-12.3-4.4-25.1-4.4-38.4c0-92.2,75.4-167.6,168-167.6c46.3,0,91,19.3,122.5,53.2l12.7,13.5l18.1-3.5c9.3-1.9,18.5-3.9,27.6-6.4c-2.1,2.9-11.8,12.7-22.8,22.4c-9.3,8.3-37,34.3-37,34.3s27,8.5,43.8,10.4c16.8,1.9,36.1-1.2,39.3-1.7C886.6,261.4,876.2,268.7,870,273z"/></g>
</svg>